<svg width="64" height="64" viewBox="0 0 64 64" fill="none" xmlns="http://www.w3.org/2000/svg">
<g clip-path="url(#clip0_1701_2629)">
<rect width="64" height="64" rx="32" fill="white"/>
<path d="M50 0H14C6.26801 0 0 6.26801 0 14V50C0 57.732 6.26801 64 14 64H50C57.732 64 64 57.732 64 50V14C64 6.26801 57.732 0 50 0Z" fill="url(#paint0_linear_1701_2629)"/>
<path d="M32.4616 2.10286C30.3848 2.22598 28.0748 2.52818 27.1307 2.808C26.8309 2.89754 26.2534 2.99827 25.8536 3.03185C24.3653 3.17736 21.189 4.25186 20.245 4.93461C19.7675 5.28159 19.401 5.46067 19.301 5.39352C19.2566 5.35994 19.1566 5.41591 19.0789 5.50545C18.9567 5.65095 18.2126 5.96434 18.0571 5.91958C18.0238 5.90838 17.8239 6.08747 17.6129 6.32251C17.4019 6.54637 17.0465 6.83738 16.8132 6.9605C16.58 7.08362 16.2024 7.35225 15.9581 7.55371C15.7249 7.75518 15.4805 7.90069 15.425 7.86711C15.2029 7.7216 14.0701 8.53866 13.3371 9.37814C13.0372 9.71388 12.7595 10.0161 12.6929 10.0609C11.9044 10.5869 10.9826 11.4936 10.3717 12.333C9.97195 12.8814 9.58326 13.4187 9.50548 13.497C9.3722 13.6538 9.10569 14.0455 7.65077 16.2057C7.29539 16.7429 6.82894 17.5265 6.62903 17.9406C6.41802 18.3659 6.11815 18.9255 5.95156 19.1718C5.75165 19.4628 5.6406 19.7874 5.6406 20.0336C5.6406 20.2574 5.59617 20.4589 5.54064 20.5037C5.48511 20.5373 5.35184 20.8059 5.25189 21.1081C5.15193 21.4103 4.94091 21.858 4.77433 22.0931C4.50778 22.4624 4.3523 22.7758 3.97469 23.7496C3.91916 23.8727 3.797 24.3764 3.69704 24.8689C3.53045 25.6747 3.28612 26.5701 2.78635 28.2267C2.6975 28.5289 2.57533 28.9766 2.5198 29.2116C2.46428 29.4467 2.29768 29.8832 2.15331 30.1631C2.00893 30.454 1.7757 31.092 1.64243 31.5845C1.50916 32.077 1.34257 32.5807 1.27593 32.7038C1.14266 32.95 1.09824 33.3753 1.02049 35.2781C0.976069 36.2967 0.998281 36.8451 1.14266 37.5167C1.24261 38.0091 1.36478 38.7478 1.42031 39.162C1.47584 39.5873 1.55358 39.9791 1.59801 40.0462C1.63133 40.1134 1.68685 40.3596 1.69796 40.5947C1.73128 41.0647 1.92008 41.4901 2.08667 41.4901C2.15331 41.4901 2.19773 41.5908 2.19773 41.7139C2.19773 41.8594 2.25326 41.9154 2.36432 41.8706C2.53091 41.8034 2.57533 41.9042 2.54202 42.3407C2.53091 42.475 2.58644 42.6093 2.67529 42.6429C2.76414 42.6765 2.8752 42.8444 2.91962 43.0234C2.95294 43.1914 3.15285 43.5607 3.35275 43.8405C3.55266 44.1203 3.75257 44.5121 3.78589 44.7136C3.83032 44.9262 3.96359 45.2173 4.08575 45.374C4.20792 45.5306 4.30787 45.7545 4.30787 45.8553C4.30787 45.9671 4.37451 46.1127 4.46336 46.1798C4.5522 46.2582 4.66327 46.482 4.70769 46.6723C4.74101 46.8738 4.87428 47.1536 4.98534 47.2991C5.10751 47.4446 5.19635 47.6125 5.19635 47.6685C5.19635 47.7356 5.29631 47.9035 5.41848 48.0602C5.54064 48.2169 5.6406 48.4407 5.6406 48.5415C5.6406 48.6534 5.70723 48.7653 5.79608 48.7989C5.87382 48.8325 5.98488 49.0564 6.02931 49.2914C6.06263 49.5264 6.17368 49.7951 6.25143 49.8846C6.32917 49.9742 6.46244 50.254 6.54018 50.5002C6.62903 50.7465 6.7623 51.0151 6.82894 51.0934C6.90668 51.1718 6.97332 51.3173 6.97332 51.4068C6.97332 51.4964 7.02885 51.5635 7.08438 51.5635C7.151 51.5635 7.26208 51.6978 7.3398 51.8657C7.73965 52.7835 9.83866 55.19 11.1825 56.2645C11.4491 56.4771 11.7489 56.7346 11.8489 56.8241C12.2487 57.1823 13.8702 58.3911 13.959 58.3911C14.0034 58.3911 14.1811 58.5142 14.3477 58.6709C14.5143 58.8276 14.692 58.9507 14.7475 58.9507C14.803 58.9507 15.1029 59.0962 15.3917 59.2865C15.6916 59.4656 15.9803 59.6223 16.0358 59.6223C16.0914 59.6223 16.3801 59.7454 16.6911 59.8797C16.9909 60.0252 17.8239 60.3386 18.5235 60.5737C19.2233 60.8087 20.0007 61.0886 20.245 61.2005C20.7559 61.4243 21.7221 61.5475 21.811 61.4019C21.8443 61.346 21.9776 61.3684 22.0997 61.4579C22.2219 61.5475 22.9104 61.7601 23.6213 61.928C24.332 62.0847 25.2871 62.3197 25.7425 62.4429C26.1978 62.566 26.9308 62.7003 27.3529 62.7562C27.786 62.8122 28.4856 62.9018 28.9077 62.9577C29.463 63.0251 29.8406 63.0135 30.2182 62.9129C30.518 62.8346 31.1955 62.7562 31.7175 62.7451C32.2506 62.7338 32.7392 62.6779 32.7948 62.6331C32.9281 62.5324 34.072 62.3421 35.3825 62.1966C35.8934 62.1407 36.4709 62.0399 36.6597 61.984C37.3483 61.7713 37.9147 61.6482 38.4477 61.5922C38.7476 61.5475 39.1474 61.4467 39.3251 61.3571C39.514 61.2676 39.7472 61.1893 39.8472 61.1893C40.1359 61.1893 41.1021 60.8758 42.3238 60.3946C42.9124 60.1484 43.4566 59.9581 43.5232 59.9581C43.5899 59.9581 43.9231 59.8238 44.2673 59.6671C44.6116 59.5104 45.0003 59.3313 45.1225 59.2753C45.2446 59.2193 45.6001 59.0291 45.8999 58.8388C46.2109 58.6597 46.6329 58.4247 46.8439 58.3127C47.0549 58.2008 47.5325 57.8986 47.899 57.63C48.2655 57.3726 48.6764 57.1263 48.8208 57.0927C48.954 57.048 49.0651 56.992 49.0651 56.9472C49.0651 56.9024 49.2983 56.7458 49.5982 56.6002C49.887 56.4547 50.2535 56.2533 50.42 56.1302C50.5755 56.0182 50.7865 55.9287 50.8643 55.9287C50.9531 55.9287 51.1197 55.828 51.2308 55.7048C51.3418 55.5817 51.5307 55.4586 51.6639 55.4138C51.7861 55.3691 52.197 55.0669 52.5746 54.7422C52.9522 54.4065 53.2854 54.1378 53.3298 54.1378C53.4631 54.1378 54.1739 53.332 54.1739 53.1753C54.1739 53.0969 54.4848 52.8059 54.8735 52.5261C55.5733 52.0224 55.862 51.6531 55.9953 51.0934C56.0286 50.9255 56.2174 50.6681 56.3951 50.5338C56.5839 50.3995 56.7282 50.2428 56.7282 50.198C56.7282 50.142 56.9059 49.9405 57.1281 49.7503C57.4724 49.4369 58.061 48.6758 58.6385 47.7692C58.7384 47.6125 58.8273 47.3551 58.8273 47.1984C58.8384 47.0305 58.8828 46.8625 58.9272 46.8066C58.9828 46.7394 59.1383 46.426 59.2715 46.1014C59.4048 45.7769 59.738 45.1613 60.0046 44.736C60.2822 44.3218 60.4821 43.8965 60.4377 43.8069C60.4044 43.7174 60.4932 43.1242 60.6154 42.4862C60.7486 41.8482 60.8264 41.1878 60.793 41.0312C60.7375 40.7625 60.9707 39.8895 61.1707 39.6433C61.2484 39.5425 61.4039 38.9605 61.5705 38.1322C61.6038 37.9756 61.6593 37.7741 61.6927 37.6845C61.726 37.595 61.7815 37.1361 61.8037 36.6772C61.8371 36.2183 61.9037 35.8042 61.9703 35.7706C62.0257 35.7258 62.0037 35.6698 61.9037 35.6363C61.7593 35.5803 61.726 35.3005 61.726 33.7447C61.726 32.7374 61.726 31.7972 61.726 31.6405C61.7149 31.4838 61.726 31.1592 61.7371 30.9129C61.7371 30.6667 61.6927 30.0399 61.6149 29.5138C61.5372 28.9878 61.4816 28.2043 61.4928 27.779C61.5039 27.3425 61.4372 26.503 61.3484 25.9098C61.2484 25.3166 61.204 24.7458 61.2373 24.6562C61.2817 24.5443 61.2484 24.4771 61.1484 24.4771C60.9596 24.4771 60.6042 23.369 60.6265 22.8541C60.6487 22.2834 60.0712 20.2015 59.838 20C59.8047 19.9665 59.7158 19.765 59.6492 19.5523C59.0161 17.616 57.9722 14.6163 57.8833 14.4932C57.8167 14.4149 57.6834 14.1686 57.5834 13.9448C57.4835 13.7321 57.3058 13.4635 57.1725 13.3403C57.0503 13.2284 56.9504 13.0718 56.9504 12.9934C56.9504 12.8255 55.0401 10.9227 54.2849 10.3407C54.0073 10.128 53.5853 9.75866 53.3409 9.52362C52.7967 8.9864 51.6862 8.10214 50.8865 7.5761C50.5644 7.36344 49.998 6.97169 49.6204 6.70307C49.2428 6.43444 48.8208 6.17701 48.6653 6.12105C48.5209 6.06508 48.3987 5.93077 48.3987 5.84123C48.3987 5.74049 48.3543 5.68453 48.3099 5.71811C48.2544 5.75169 47.8324 5.5726 47.3659 5.33756C46.8883 5.09131 46.4441 4.88985 46.3664 4.88985C46.2997 4.88985 46.1109 4.82269 45.9555 4.74434C45.8 4.66599 45.4446 4.53168 45.1558 4.45333C44.867 4.36379 44.5672 4.22947 44.5005 4.15112C44.4339 4.07278 44.2007 3.97204 43.9675 3.92727C43.3122 3.81534 41.9573 3.43479 41.5241 3.2557C40.8466 2.9647 39.2474 2.43864 39.1808 2.48341C39.1474 2.50579 38.9142 2.47222 38.6699 2.41625C38.4366 2.36029 37.837 2.28194 37.3483 2.24836C36.8596 2.21478 36.06 2.14763 35.5713 2.09166C35.0826 2.02451 34.5162 1.99093 34.2941 2.00212C34.0831 2.01331 33.2613 2.05808 32.4616 2.10286ZM34.6828 2.55056C35.116 2.60653 35.96 2.70727 36.5708 2.76323C38.0702 2.91992 40.6578 3.42359 40.7911 3.59149C40.8577 3.66984 40.9688 3.71461 41.0466 3.68103C41.3242 3.59149 43.7898 4.33021 44.2784 4.6548C44.4228 4.74434 44.6116 4.83388 44.6893 4.84507C44.7671 4.85627 44.9448 4.9682 45.078 5.10251C45.2113 5.22563 45.4779 5.35994 45.6556 5.40471C46.0998 5.49425 47.5436 6.27774 48.7985 7.09482C49.154 7.32986 49.6426 7.62087 49.8648 7.7328C50.098 7.84473 50.4423 8.09096 50.6421 8.28124C51.0087 8.60582 52.6523 9.78104 53.352 10.2176C53.874 10.531 54.3294 10.9787 54.918 11.7398C55.1845 12.0979 55.4733 12.389 55.551 12.389C55.6177 12.389 55.8953 12.68 56.1508 13.027C56.4062 13.3851 56.7949 13.9 57.0059 14.1798C57.3169 14.5827 57.7278 15.5677 57.7278 15.9035C57.7278 16.0154 57.0059 15.7132 56.917 15.5565C56.8726 15.4781 56.7616 15.411 56.6727 15.411C56.5839 15.411 56.3729 15.2543 56.1952 15.064C55.8398 14.6835 55.44 14.6723 55.551 15.0416C55.6066 15.2431 55.7065 15.9818 56.0064 18.3435C56.173 19.709 56.1508 19.9776 55.6177 22.1826C55.5621 22.4289 55.5066 23.0669 55.5066 23.6041C55.5066 24.1525 55.4622 24.5891 55.4067 24.5891C55.2512 24.5891 55.0957 24.3316 55.0179 23.9175C54.9735 23.7048 54.8513 23.4026 54.7403 23.2571C54.5737 23.0332 54.5071 23.0109 54.2961 23.134C53.9629 23.3019 53.6852 23.0892 53.7852 22.7199C53.8296 22.5184 53.7963 22.4624 53.6297 22.4624C53.4076 22.4624 53.2854 22.261 53.2854 21.858C53.2854 21.4215 52.8967 21.1193 52.3414 21.1193C51.775 21.1193 51.6417 20.985 51.8861 20.6268C52.0193 20.4141 52.0304 20.291 51.9305 20.0336C51.8639 19.8545 51.8416 19.5299 51.8861 19.3061C51.9638 18.892 52.3081 18.4778 52.4858 18.5898C52.6301 18.6793 52.6301 19.5523 52.4858 19.8545C52.3081 20.2239 52.4413 20.4141 52.9522 20.5037C53.2854 20.5597 53.5297 20.7052 53.8518 21.041C54.0851 21.2984 54.2849 21.5558 54.2849 21.6341C54.2849 21.8356 54.5737 22.0259 54.7625 21.9476C54.8624 21.914 54.9846 21.7349 55.0512 21.5558C55.1068 21.3767 55.2067 21.2312 55.2623 21.2312C55.3178 21.2312 55.3955 20.9178 55.4289 20.5261C55.4733 20.1456 55.5288 19.6978 55.5733 19.5411C55.6288 19.2837 55.5955 19.2278 55.2956 19.127C55.1068 19.0598 54.9513 19.0374 54.9513 19.071C54.9513 19.1046 54.8624 19.0598 54.7625 18.9703C54.5959 18.8248 54.2516 18.6793 53.9518 18.6121C53.9185 18.6009 53.8963 18.7017 53.8963 18.8136C53.8963 19.183 53.6408 19.1382 53.4742 18.7465C53.3854 18.545 53.2077 18.2652 53.0744 18.1309C52.9522 17.9965 52.8411 17.7839 52.8411 17.6607C52.8411 17.5152 52.7856 17.4481 52.6856 17.4929C52.5857 17.5265 52.3858 17.3585 52.1526 17.0452C51.5418 16.2057 51.1419 16.2616 50.6421 17.2578C50.4867 17.5824 50.4534 17.7727 50.52 17.907C50.6866 18.198 50.5422 18.3099 50.098 18.2428C49.6315 18.1644 49.3983 18.3883 49.3983 18.9031C49.3983 19.1718 49.4427 19.2165 49.7204 19.2165C50.098 19.2165 50.7865 19.9105 50.6866 20.1903C50.6532 20.2798 50.6755 20.4589 50.7421 20.5821C50.8087 20.7163 50.8643 21.1305 50.8643 21.5222L50.8532 22.2274L51.1864 22.1938C51.5418 22.149 51.8305 21.858 51.8416 21.5334C51.8416 21.3096 52.0638 21.2648 52.0638 21.4998C52.0638 21.5782 52.1748 21.6789 52.297 21.7125C52.4858 21.7573 52.5191 21.8245 52.4413 21.9811C52.3081 22.3058 52.3525 22.787 52.5413 22.9997C52.7856 23.2683 52.8411 24.1749 52.619 24.2197C52.5302 24.2421 52.3969 24.1525 52.3414 24.0182C52.2748 23.8839 52.1415 23.716 52.0193 23.6489C51.9083 23.5817 51.6862 23.4026 51.5307 23.2571L51.253 22.9773L51.0087 23.2683C50.7199 23.6041 50.3201 23.8391 50.1868 23.7496C49.887 23.5705 48.6097 23.4026 47.2326 23.3578C46.1998 23.3243 46.1776 23.3354 46.1776 23.5258C46.1776 23.7384 46.4219 23.8391 47.6658 24.1301C48.21 24.2645 48.743 24.4436 48.843 24.5331C49.054 24.7234 49.6426 24.7569 49.9536 24.5891C50.1313 24.4995 50.209 24.5667 50.4978 25.0927C50.6866 25.4285 50.8421 25.8427 50.8421 25.9993C50.8421 26.4471 50.4978 27.1634 50.2868 27.1634C50.1868 27.1634 49.9425 26.9507 49.7426 26.6821C49.4538 26.2792 49.2539 26.1449 48.6431 25.9434C48.2322 25.7979 47.8768 25.6523 47.8435 25.6076C47.8102 25.574 47.6547 25.4732 47.4881 25.4061C47.2548 25.3054 47.1549 25.3054 46.9883 25.4285C46.7217 25.6412 46.6218 25.63 46.6218 25.4285C46.6218 25.2494 46.0443 25.2047 44.5672 25.2494C43.8342 25.2718 42.9235 25.5292 42.7236 25.7755C42.6569 25.865 42.5348 25.9321 42.457 25.9321C42.3793 25.9321 42.2571 26.0105 42.1794 26.1001C42.0794 26.212 42.0794 26.268 42.1683 26.268C42.2349 26.268 42.2904 26.3239 42.2904 26.3799C42.2904 26.4471 42.2127 26.4918 42.1017 26.4694C41.9795 26.4471 41.8462 26.5925 41.6907 26.906C41.5575 27.1634 41.3909 27.376 41.3242 27.3872C41.2465 27.3872 41.1798 27.432 41.1798 27.4992C41.1798 27.5551 41.2576 27.5775 41.3464 27.544C41.5352 27.4656 41.5797 27.6671 41.3909 27.779C41.3242 27.8349 41.3464 27.9133 41.4797 28.014C41.6685 28.1483 41.6685 28.1595 41.4908 28.1707C41.3798 28.1707 41.2909 28.2379 41.2909 28.3162C41.2909 28.4953 40.0804 28.764 39.9138 28.6296C39.8472 28.5736 39.5028 28.5736 39.1252 28.6296C38.7587 28.6856 38.0702 28.7192 37.5926 28.7192C37.0817 28.708 36.6708 28.7527 36.593 28.8311C36.4042 29.0214 36.2932 28.9766 36.2932 28.7303C36.2932 28.5512 36.2155 28.5065 35.8823 28.5065C35.4603 28.5065 34.4829 28.2267 33.4612 27.8125C33.1613 27.6894 32.7392 27.5216 32.5282 27.4432C32.3283 27.3649 32.1284 27.2641 32.084 27.2081C31.9841 27.0627 31.2177 26.4918 31.1289 26.4918C31.0845 26.4918 30.9401 26.3799 30.7957 26.2456C30.5514 26.0105 30.307 25.9098 29.9295 25.921C29.7851 25.921 29.7518 25.865 29.7962 25.6971C29.8517 25.5404 29.8295 25.5069 29.6851 25.5516C29.563 25.6076 29.4852 25.5516 29.4408 25.3949C29.3742 25.1375 28.8188 25.0032 28.63 25.1934C28.5412 25.283 28.4856 25.2718 28.4301 25.1711C28.3413 25.048 27.4417 24.7905 27.0752 24.8017C26.009 24.8241 24.9984 24.9584 24.4542 25.1599L23.799 25.4061L24.2987 25.574C24.5763 25.6636 24.8207 25.7755 24.854 25.8091C24.8873 25.8427 25.0095 25.9321 25.1317 25.9993C25.5093 26.212 25.4426 26.4247 24.754 27.0851C24.1099 27.7118 23.6435 27.8909 23.4658 27.5999C23.4213 27.5327 23.3214 27.5103 23.2325 27.544C23.1437 27.5775 23.077 27.5327 23.077 27.4432C23.077 27.3536 23.1437 27.2753 23.2214 27.2641C23.3103 27.2641 23.3214 27.2417 23.2214 27.2081C23.0437 27.1298 22.0553 27.6558 21.5777 28.07C21.3556 28.2714 21.0557 28.6408 20.9002 28.9094C20.7448 29.1781 20.5448 29.4019 20.4449 29.4019C20.356 29.4019 20.1895 29.1669 20.0673 28.8647C19.9452 28.5736 19.8008 28.2603 19.7564 28.1707C19.7008 28.07 19.6231 27.6782 19.5787 27.2977C19.512 26.6709 19.5342 26.559 19.7897 26.1001C20.1339 25.518 20.0118 25.4509 19.4121 25.865C19.201 26.0105 18.9234 26.156 18.8012 26.2008C18.679 26.2344 18.4791 26.4247 18.357 26.6149C18.2348 26.8052 17.9572 27.0514 17.7462 27.1522C17.1909 27.3984 16.1691 28.5625 16.2135 28.8759C16.2357 29.0438 16.3135 29.1109 16.4689 29.0997C16.5911 29.0773 17.002 29.0549 17.3797 29.0325C18.0349 28.999 18.0904 29.0102 18.4236 29.3572C18.8012 29.7489 18.8123 30.1742 18.4347 30.0063C17.9017 29.7601 15.8581 30.2302 15.8581 30.5996C15.8581 30.7114 15.7915 30.7451 15.6805 30.7003C15.5805 30.6667 15.4472 30.6331 15.3695 30.6331C15.2251 30.6331 15.1362 30.4205 14.7142 29.1221C14.5476 28.596 14.5476 28.5625 14.7475 28.361C14.903 28.2267 14.9696 28.2043 14.9696 28.3051C14.9696 28.3946 15.0252 28.3722 15.0918 28.2491C15.1473 28.1483 15.2917 28.0588 15.4139 28.0588C15.525 28.0588 15.8804 27.7678 16.2024 27.3872C16.5245 27.0179 16.8243 26.7157 16.8799 26.7157C16.9354 26.7157 17.1464 26.5925 17.3463 26.4358C17.5463 26.2792 17.8128 26.156 17.9461 26.156C18.1349 26.156 19.0122 25.3838 20.9225 23.4921C21.0113 23.4138 21.078 23.2571 21.078 23.1676C21.078 22.9661 21.3889 22.5743 21.5555 22.5743C21.6111 22.5743 21.8443 22.4176 22.0886 22.2386C22.5439 21.858 23.5546 21.5334 23.7212 21.7013C23.7879 21.7685 23.9989 21.7573 24.2543 21.6901C24.8762 21.5222 28.2746 21.4998 28.4412 21.6678C28.5079 21.7349 28.7189 21.7909 28.9077 21.7909C29.0965 21.7909 29.3075 21.8469 29.3853 21.9252C29.5185 22.0595 30.3848 22.3505 30.8179 22.3952C30.9623 22.4065 31.1622 22.5072 31.2733 22.608C31.3843 22.7087 31.7287 22.8318 32.0285 22.8654C32.3283 22.8989 32.6504 22.9549 32.7392 22.9885C32.8281 23.0221 33.1058 23.0669 33.3501 23.078C33.5945 23.1004 33.9943 23.2012 34.2386 23.3019C34.805 23.5481 36.2932 23.6377 36.2932 23.425C36.2932 23.2347 35.9267 22.9997 35.327 22.7982C34.916 22.6751 34.7828 22.5632 34.8716 22.4289C34.9494 22.3058 34.5273 21.8692 34.0165 21.5558C33.2279 21.0745 33.1613 20.7276 33.9165 21.0074C34.5606 21.2536 34.2941 20.8954 33.5167 20.4589C33.1835 20.2798 30.8512 19.0374 28.5412 17.8287C27.3307 17.1794 26.8531 16.8772 26.8309 16.7094C26.8086 16.5974 26.7198 16.4631 26.6309 16.4407C26.4866 16.3848 26.4866 16.4072 26.6198 16.5639C26.842 16.8437 26.7309 16.8101 25.5759 16.2392C24.8984 15.9035 24.5541 15.6685 24.5874 15.5789C24.6207 15.5005 24.5985 15.411 24.5541 15.3774C24.3542 15.2543 22.9549 15.6572 22.6439 15.9259C22.4329 16.0938 22.1886 16.1945 21.9331 16.1945C21.711 16.1945 21.5 16.2392 21.4667 16.3064C21.4334 16.3624 21.1002 16.4183 20.7337 16.4183H20.0562L20.1339 16.0826C20.1784 15.8699 20.1562 15.6796 20.0784 15.5789C19.9785 15.4558 19.9674 15.3774 20.0673 15.2543C20.2117 15.0864 20.0229 14.9633 19.6009 14.9633C19.4676 14.9633 19.2566 14.885 19.1455 14.7954C18.8345 14.5492 18.7346 14.5939 18.8123 14.9074C18.9012 15.2543 18.7235 15.2767 18.4125 14.9633C18.2792 14.829 18.1238 14.7394 18.046 14.7618C17.9683 14.773 17.8017 14.7394 17.6573 14.6947C17.5018 14.6387 17.3463 14.6611 17.2464 14.7394C17.0909 14.8626 16.6355 14.9185 14.7253 15.0416C13.9035 15.0976 13.8591 15.1088 13.8591 15.3662C13.8591 15.6909 13.7147 15.702 13.2927 15.3998C13.015 15.1983 12.9372 15.1872 12.7817 15.3103C12.6152 15.4558 12.1376 15.4558 11.9155 15.3103C11.86 15.2767 11.4602 15.2431 11.027 15.2431C10.0164 15.2431 9.98305 15.0864 10.8271 14.1574C11.1825 13.7769 11.6268 13.2284 11.7933 12.9486C11.971 12.6688 12.182 12.4001 12.2709 12.3554C12.3486 12.2994 12.5485 12.0644 12.6929 11.8181C12.8484 11.5831 13.0483 11.3816 13.1483 11.3816C13.2371 11.3816 13.4815 11.2585 13.6814 11.1018C14.0812 10.7996 15.1585 10.2847 15.7471 10.128C17.1131 9.75866 17.9794 9.5684 18.4125 9.54601C19.401 9.50124 19.7786 8.88562 19.0011 8.59465C18.4569 8.40433 17.9461 8.42672 17.7906 8.63943C17.6018 8.90801 17.3908 8.85207 17.4796 8.54988C17.5129 8.41556 17.6018 8.24769 17.6573 8.1693C17.7129 8.09096 17.7351 7.97904 17.6907 7.90069C17.6462 7.83353 17.7018 7.64325 17.8239 7.48656C17.9461 7.31867 18.0793 7.06123 18.1127 6.90454C18.2126 6.46802 18.5902 6.14343 19.0456 6.05389C19.2788 6.00912 19.5231 5.93077 19.5898 5.886C19.7786 5.7293 20.7448 5.55022 21.2779 5.56141C21.7332 5.5726 21.9109 5.39352 21.5777 5.2704C21.2112 5.12489 21.5 4.67718 21.9887 4.61003C22.133 4.58764 22.4218 4.50929 22.6328 4.44214C22.8438 4.37498 23.3214 4.24067 23.6879 4.16232C24.0544 4.08397 24.7318 3.90489 25.1872 3.78176C29.1298 2.68488 32.5393 2.23717 34.6828 2.55056ZM10.083 14.4037C10.083 14.4596 10.0608 14.5156 10.0386 14.5156C10.0053 14.5156 9.94975 14.4596 9.91644 14.4037C9.88307 14.3365 9.90528 14.2918 9.96085 14.2918C10.0275 14.2918 10.083 14.3365 10.083 14.4037ZM8.69473 17.1235C8.48373 17.963 8.30604 18.7576 8.30604 18.8807C8.30604 19.015 8.22832 19.2725 8.12834 19.4628C8.02837 19.653 7.99506 19.8321 8.05063 19.8769C8.26163 20.0336 8.29494 23.716 8.08394 23.9623C8.00616 24.063 7.97286 24.2197 8.01726 24.3204C8.05063 24.41 8.01726 24.6226 7.93955 24.7905C7.85067 24.9584 7.80626 25.1823 7.82847 25.283C7.86177 25.4285 7.75075 25.5292 7.42867 25.6636C7.18431 25.7531 6.90668 25.9658 6.80673 26.1112C6.71788 26.2568 6.55129 26.3799 6.44023 26.3799C6.14036 26.3799 5.60728 27.3425 5.4629 28.1483C5.42958 28.3722 5.31852 28.6184 5.22967 28.6968C5.05198 28.8423 4.9187 30.3645 5.0853 30.4652C5.14082 30.4988 5.14082 30.6667 5.0853 30.8458C4.89649 31.5285 5.34073 32.6254 6.15147 33.4761C6.3847 33.7223 6.5735 34.0357 6.60682 34.2707C6.64014 34.4834 6.71788 34.6625 6.7623 34.6625C6.96221 34.6625 6.85115 34.9535 6.49576 35.3341C5.48511 36.4309 4.66327 38.1658 4.61884 39.2739C4.60774 39.5761 4.5522 39.8112 4.50778 39.8112C4.34119 39.8112 3.86364 39.1844 3.86364 38.9717C3.86364 38.8374 3.81921 38.6919 3.76368 38.6247C3.57488 38.4456 3.44161 36.8787 3.55266 36.2183C3.6082 35.8825 3.65262 35.4348 3.65262 35.2222C3.66373 35.0095 3.73036 34.6625 3.81921 34.4611C4.13017 33.7 4.3634 30.9353 4.13018 30.7338C3.96359 30.5996 3.90806 30.6779 3.69704 31.3831C3.6082 31.674 3.56377 32.021 3.59709 32.1553C3.64152 32.3009 3.53045 32.6254 3.31944 32.9948C3.14174 33.3305 2.93073 33.8342 2.85299 34.1365C2.78635 34.4274 2.6864 34.6961 2.63087 34.7185C2.58644 34.752 2.56423 34.8416 2.59755 34.92C2.61976 34.9983 2.58644 35.4124 2.5198 35.8378C2.37543 36.7443 2.35321 37.0354 2.331 37.9867C2.30879 38.5016 2.26437 38.6919 2.15331 38.6919C1.83124 38.6919 1.7646 38.3785 1.73128 36.5093C1.69796 34.517 1.7757 33.6663 2.05336 33.2411C2.1422 33.1067 2.23105 32.7038 2.25326 32.3344C2.27547 31.8531 2.37543 31.5174 2.63087 31.0696C2.81967 30.7227 2.97515 30.3645 2.97515 30.2638C2.97515 30.0511 3.27502 29.0885 3.41939 28.8199C3.48603 28.708 3.53045 28.5177 3.53045 28.4058C3.53045 28.2827 3.57488 28.1595 3.63041 28.1147C3.68594 28.0812 3.73036 27.9133 3.73036 27.7454C3.71925 27.5775 3.93027 26.7716 4.18571 25.9658C4.43004 25.1711 4.68548 24.2645 4.74101 23.9623C4.86318 23.3243 5.42958 22.1154 5.75165 21.7909C5.87382 21.6678 5.95156 21.567 5.92935 21.567C5.78497 21.567 6.27364 20.2015 6.58461 19.7202C6.79562 19.418 7.1621 18.7465 7.40647 18.2428C7.65077 17.7391 7.91734 17.2914 7.99506 17.2354C8.17275 17.1235 8.32824 16.8772 8.69473 16.0938C8.85022 15.758 8.99461 15.5118 9.02791 15.5453C9.06128 15.5677 8.90579 16.284 8.69473 17.1235ZM10.5161 16.0714C10.6494 16.1498 10.6494 16.2169 10.5494 16.34C10.3384 16.5974 10.5494 16.6646 10.8049 16.4183C11.0159 16.2169 11.1048 16.2057 11.6268 16.3064C12.1043 16.396 12.3042 16.3736 12.8373 16.1945C13.4704 15.9707 13.4926 15.9707 14.0812 16.1721C14.6031 16.3512 14.692 16.4296 14.7253 16.687C14.7808 17.1011 14.5698 17.3138 14.1256 17.3138C13.7702 17.3138 13.748 17.3361 13.748 17.6831C13.748 17.8846 13.6258 18.2204 13.4926 18.433C13.1705 18.9143 12.7484 20.1232 12.6929 20.7276C12.6707 20.9738 12.6485 21.2089 12.6485 21.2536C12.6263 21.4327 11.8489 21.7909 11.4824 21.7909C10.9937 21.7909 10.9715 21.8916 11.4157 22.149C11.6046 22.2498 11.7489 22.2834 11.7489 22.2274C11.7489 22.1602 11.86 22.1267 12.0043 22.149C12.3153 22.1938 12.4263 22.8654 12.1376 22.9773C11.9044 23.0669 11.2158 22.7534 11.127 22.5184C11.0381 22.3058 10.7938 22.2945 10.716 22.5072C10.6605 22.6639 11.3491 23.4026 11.5823 23.425C11.649 23.4362 11.76 23.4474 11.8489 23.4586C11.9266 23.4698 11.971 23.5369 11.9266 23.6377C11.8933 23.7272 11.9155 23.8056 11.971 23.8056C12.0377 23.8056 12.0821 23.8727 12.0821 23.9623C12.0821 24.1189 11.6601 24.5331 10.7716 25.2494C10.3273 25.6076 10.1607 25.9321 10.4273 25.9321C10.4939 25.9321 10.8604 25.6747 11.2491 25.3725C11.9599 24.8017 12.0821 24.7345 12.0821 24.9136C12.0821 25.0927 10.8715 26.2008 10.5272 26.3575C10.1941 26.4918 10.1052 26.6485 10.3051 26.7716C10.4495 26.8612 11.2936 26.4134 11.6379 26.0777C12.0599 25.6523 12.0266 25.9434 11.5601 26.6933C11.2714 27.1634 11.0048 27.4432 10.7271 27.5775C10.2718 27.8014 10.1941 27.9916 10.4939 28.1595C10.6494 28.2379 10.7938 28.1595 11.1714 27.8014C11.438 27.544 11.7489 27.141 11.8711 26.906C12.1265 26.4134 12.3375 26.3463 12.2376 26.794C12.0155 27.723 11.2603 28.5512 10.5272 28.6744C10.2607 28.7192 9.96085 28.6744 9.64987 28.5512C9.3944 28.4505 9.15009 28.3946 9.11679 28.4394C9.07238 28.4729 9.10569 28.5065 9.1723 28.5065C9.3722 28.5065 9.32779 28.9207 9.12789 28.999C8.79471 29.1333 9.28338 29.4691 9.97195 29.581C11.1603 29.7825 11.3158 29.7713 11.9377 29.4467C12.5263 29.1333 13.0816 28.5736 13.0816 28.3051C13.0816 27.8909 13.5814 28.417 13.6703 28.9207C13.7147 29.1221 13.8257 29.4243 13.9368 29.5922C14.3699 30.2525 15.0807 32.5471 15.0807 33.2522C15.0807 33.9126 14.9696 34.0357 14.4476 33.9574C13.959 33.879 12.9595 33.588 12.5263 33.3977C12.3708 33.3418 11.6268 33.2634 10.8604 33.2411C8.9613 33.1851 8.19496 32.9724 7.70628 32.3792C7.49529 32.1218 6.99553 31.5733 6.59571 31.148C5.92935 30.4205 5.88493 30.3533 6.04041 30.1407C6.12926 30.0175 6.1959 29.8496 6.1959 29.7601C6.1959 29.5922 8.17275 27.3089 8.39491 27.2193C8.48373 27.1858 8.50593 27.2193 8.46153 27.2865C8.41712 27.3649 8.45042 27.3984 8.52814 27.3649C8.61702 27.3425 8.69473 27.1186 8.70583 26.8164C8.71693 26.5478 8.7614 25.4732 8.79471 24.4323C8.88352 22.1938 9.01681 21.7909 9.78315 21.4551C10.3717 21.1865 11.1714 20.3806 11.0159 20.2239C10.9493 20.1567 10.4495 20.1008 9.89417 20.1008C9.02791 20.0896 8.89469 20.0672 8.92799 19.8993C9.22781 18.5114 9.50548 17.4817 9.70538 17.0116C9.79426 16.8213 9.86087 16.6198 9.86087 16.5639C9.86087 16.4296 10.1941 15.9707 10.2829 15.9707C10.3273 15.9707 10.4273 16.0154 10.5161 16.0714ZM56.9615 16.4407C57.3724 16.6758 57.3946 16.6758 57.6057 16.4855C57.8278 16.284 58.061 16.3176 58.061 16.5527C58.061 16.6198 58.1388 16.7653 58.2387 16.8772C58.3275 16.978 58.4941 17.4929 58.6052 18.0077C58.7162 18.5114 58.8273 19.015 58.8606 19.1046C58.8828 19.1941 59.0272 19.5971 59.1605 20C59.3049 20.403 59.4492 21.0074 59.5048 21.3432C59.6158 22.0931 59.7269 22.5967 59.838 22.7423C59.8824 22.7982 59.9601 23.1004 60.0046 23.4026C60.0379 23.7048 60.2045 24.3092 60.3599 24.7458C60.5154 25.1823 60.6376 25.7195 60.6265 25.9321C60.6154 26.1449 60.682 26.7716 60.7708 27.3312C60.8597 27.8797 60.9596 29.0773 60.9818 29.984C61.0152 30.8905 61.0707 31.6852 61.1151 31.7636C61.1596 31.8307 61.1484 31.9203 61.0929 31.9651C61.0263 31.9986 60.9818 32.1777 60.9818 32.368C60.9818 33.2634 60.793 34.92 60.5931 35.6698C60.471 36.1287 60.3266 36.7556 60.2822 37.0689C60.2267 37.3711 60.16 37.7517 60.1156 37.9084C60.0823 38.0651 59.9824 38.7702 59.9046 39.4754C59.7269 41.0088 59.3271 42.4414 58.9717 42.8332C58.8273 42.9899 58.6385 43.2585 58.5385 43.4488C58.4386 43.6279 58.2054 44.0084 58.0166 44.2882C57.8278 44.5681 57.6945 44.8031 57.7056 44.8143C57.75 44.8814 56.5506 46.8178 56.284 47.0976C56.0508 47.3438 55.34 47.758 55.1623 47.758C55.0735 47.758 54.8624 47.8364 54.6736 47.9371C54.3294 48.1162 54.4182 48.1162 52.197 47.8027C51.986 47.7692 51.7972 47.6573 51.7639 47.5565C51.7195 47.4558 51.5418 47.2096 51.3752 47.0305C51.2086 46.8402 51.0642 46.6611 51.0642 46.6163C51.0642 46.5827 50.9309 46.3925 50.7754 46.2022C50.52 45.8888 50.4978 45.7881 50.5644 45.3292C50.6088 45.0494 50.731 44.68 50.8532 44.5233C50.9642 44.3666 51.0753 44.1203 51.0975 43.986C51.1197 43.8517 51.1641 43.6951 51.2086 43.6614C51.253 43.6167 51.2863 43.46 51.2863 43.3257C51.2863 43.1914 51.3641 42.9899 51.4751 42.8892C51.675 42.6765 52.0193 41.3782 52.1748 40.1917C52.2748 39.4306 52.1748 38.6135 51.9638 38.468C51.9194 38.4345 51.6639 37.7853 51.4085 37.013C51.153 36.2407 50.8865 35.5243 50.8309 35.4236C50.7754 35.3229 50.6977 35.0207 50.6644 34.752C50.6199 34.4834 50.5422 34.2372 50.4867 34.2036C50.4311 34.17 50.3756 33.9798 50.3423 33.7783C50.3201 33.5768 50.2313 33.3082 50.1424 33.1739C50.0203 32.9836 50.0092 32.7709 50.0758 32.312C50.1202 31.9763 50.1646 31.439 50.1646 31.1256C50.1757 30.7114 50.2868 30.3309 50.6088 29.6594C50.8532 29.1557 51.0198 28.7192 50.9864 28.6968C50.9642 28.6632 51.0642 28.417 51.2197 28.1371C51.3752 27.8685 51.4862 27.6223 51.4529 27.5887C51.4196 27.5551 51.464 27.3872 51.5529 27.2193C51.6417 27.0403 51.6973 26.8612 51.6639 26.8164C51.5418 26.6149 51.5084 25.1487 51.6306 25.1487C51.6973 25.1487 51.986 25.2718 52.2748 25.4173C52.5524 25.574 53.1854 25.8874 53.6741 26.1336L54.5737 26.5701L55.029 26.3911C55.2956 26.2903 55.5621 26.1449 55.6399 26.0665C55.7065 25.9993 55.8176 25.9321 55.8731 25.9321C55.9287 25.9321 56.0619 25.8203 56.1841 25.6747C56.4173 25.3949 56.3729 24.7793 56.1064 24.466C55.9287 24.2645 55.9064 23.9623 56.0508 23.8727C56.1064 23.8391 56.1841 23.3914 56.2285 22.8878C56.2729 22.3729 56.3729 21.7013 56.4506 21.3991C56.7949 20.112 56.8171 19.6867 56.6061 18.0525C56.3729 16.2505 56.3729 16.1945 56.4617 16.1945C56.5061 16.1945 56.7282 16.3064 56.9615 16.4407ZM18.9123 17.8734C18.8123 18.0525 18.6679 18.2092 18.568 18.2092C18.3459 18.2092 18.2459 18.5114 18.4014 18.7017C18.5902 18.9255 18.3348 19.4404 18.0349 19.4404C17.8905 19.4404 17.8461 19.474 17.935 19.53C18.1571 19.6754 17.9239 20.4141 17.2242 21.7125C17.1353 21.8916 17.0132 22.3617 16.9576 22.7758C16.8688 23.369 16.7799 23.5929 16.5245 23.8615C16.3468 24.0406 16.2024 24.2421 16.2024 24.3092C16.2024 24.3652 16.1025 24.4323 15.9803 24.4547C15.6249 24.5107 15.5472 23.9847 15.8359 23.425C16.1247 22.843 16.7466 21.276 16.7466 21.1193C16.7466 21.0633 16.9021 20.6828 17.0798 20.2798C17.2686 19.8769 17.413 19.4852 17.413 19.418C17.413 19.3509 17.6129 18.9479 17.8572 18.5226C18.1015 18.0861 18.3014 17.7055 18.3014 17.6607C18.3014 17.6272 18.3792 17.4705 18.4791 17.325L18.6568 17.0787L18.8678 17.3026C19.0678 17.5152 19.0789 17.56 18.9123 17.8734ZM26.5199 17.7167C27.2196 18.0637 27.9526 18.4666 28.1525 18.6121C28.3413 18.7576 28.5412 18.8807 28.5745 18.8807C28.6967 18.8807 30.2404 19.9105 30.2737 20.0112C30.2959 20.0672 30.3959 20.112 30.4958 20.1232C30.6069 20.1232 30.9068 20.2798 31.1844 20.4478C31.4621 20.6268 31.8397 20.8395 32.0174 20.929C32.2062 21.0186 32.4172 21.1641 32.4949 21.2648C32.5838 21.3656 32.8836 21.4775 33.1613 21.5222C33.6722 21.6006 34.4052 21.9811 34.4052 22.1714C34.4052 22.2162 34.2941 22.2386 34.1608 22.205C32.8836 21.8804 32.5504 21.7685 32.1729 21.5222C31.9397 21.3656 31.7175 21.2312 31.6731 21.2312C31.6398 21.2312 31.4732 21.1305 31.3066 21.0186C31.14 20.8954 30.8734 20.7611 30.718 20.7276C30.5625 20.6828 30.3182 20.5261 30.1738 20.3806C30.0405 20.2351 29.8739 20.112 29.8073 20.112C29.7407 20.112 29.4963 20.0112 29.2631 19.8881C29.041 19.765 28.7633 19.6643 28.6411 19.6643C28.5301 19.6643 28.3191 19.5747 28.1747 19.4516C28.0303 19.3396 27.7971 19.2165 27.6527 19.1718C27.5195 19.127 27.3529 18.9927 27.2973 18.8696C27.2307 18.7576 27.0641 18.6569 26.9308 18.6457C26.7975 18.6457 26.2867 18.4219 25.798 18.142C25.3094 17.8734 24.7762 17.5936 24.6096 17.5265C24.0988 17.325 24.221 17.0899 24.8429 17.0899C25.0872 17.0899 25.6981 17.3138 26.5199 17.7167ZM25.3427 18.9479C26.9863 19.7874 28.5856 20.5485 28.8966 20.638C29.5185 20.8171 30.1849 21.1865 30.1849 21.3543C30.1849 21.5222 29.5408 21.4663 28.841 21.2312C28.4745 21.1081 28.1081 21.0074 28.0414 21.0186C27.9637 21.0298 27.7749 20.985 27.5972 20.9178C27.053 20.6828 24.8096 20.7276 23.6324 20.9962C22.6217 21.22 21.4112 21.7237 21.4112 21.9252C21.4112 21.97 21.3556 22.0147 21.289 22.0147C21.0891 22.0147 20.3894 22.6191 19.401 23.6377C18.8901 24.1637 18.4236 24.5891 18.357 24.5891C18.2015 24.5891 17.8017 25.0256 17.7129 25.283C17.6351 25.518 16.9909 25.9321 16.7244 25.9321C16.4467 25.9321 16.4023 25.7755 16.5356 25.3725C16.6244 25.1151 16.7133 25.0367 16.8577 25.0703C16.9687 25.0927 17.1131 25.0815 17.1909 25.0367C17.3797 24.9249 17.2242 24.6898 17.0243 24.7793C16.7577 24.8801 16.8354 24.5443 17.1131 24.3652C17.2464 24.2756 17.3908 24.2085 17.4241 24.2197C17.4574 24.2309 17.4907 24.1078 17.4907 23.9399C17.5018 23.5481 17.5796 23.1452 17.724 22.7982C17.7795 22.6415 17.9239 22.2945 18.0238 22.0147C18.1238 21.7349 18.3014 21.3096 18.4125 21.0633C18.5124 20.8171 18.6457 20.4925 18.6901 20.347C18.9678 19.4516 20.0118 17.6607 20.2672 17.6496C20.3338 17.6496 20.5337 17.7055 20.7003 17.7615C20.9336 17.851 21.0446 17.8398 21.1779 17.7167C21.2779 17.6272 21.5333 17.5376 21.7443 17.5041C21.9553 17.4817 22.1886 17.4481 22.2441 17.4481C22.3107 17.4369 23.699 18.1085 25.3427 18.9479ZM17.8017 17.6383C17.835 17.6943 17.6795 18.0637 17.4685 18.4554C17.2464 18.8472 17.0243 19.2389 16.9798 19.3285C16.9243 19.418 16.8021 19.7874 16.6911 20.1456C16.48 20.9178 15.5583 22.9325 15.3806 23.0445C15.214 23.1564 15.1696 23.1564 15.003 23.0445C14.903 22.9773 14.9363 22.8206 15.1362 22.4065C15.2806 22.0931 15.4139 21.7573 15.4139 21.6565C15.4139 21.5558 15.4694 21.4327 15.525 21.3991C15.5916 21.3656 15.636 21.2536 15.636 21.1529C15.636 20.929 17.0465 17.9965 17.2797 17.7279C17.4685 17.5152 17.7018 17.4817 17.8017 17.6383ZM16.369 18.5674C16.1691 19.015 15.8137 19.7874 15.5805 20.2798C14.8697 21.8356 14.8253 21.9476 14.6809 22.3393C14.6031 22.552 14.5587 22.7647 14.5809 22.7982C14.6809 22.9661 14.3366 23.2795 14.1367 23.2123C13.9812 23.1452 13.959 23.0556 14.0256 22.731C14.059 22.5072 14.1367 22.2386 14.1922 22.1378C14.2477 22.0371 14.3477 21.6678 14.4143 21.3208C14.4921 20.9402 14.6142 20.6268 14.7253 20.5597C14.903 20.4589 14.903 20.4365 14.7253 20.3358C14.6142 20.2687 14.481 20.112 14.4143 20C14.3144 19.8098 14.3477 19.7538 14.6587 19.6195C15.1251 19.4068 15.525 19.0598 15.525 18.8584C15.525 18.7352 15.6694 18.5226 16.1913 17.8958C16.2579 17.8287 16.4023 17.7615 16.5245 17.7615C16.7244 17.7615 16.7133 17.8287 16.369 18.5674ZM50.3978 18.4778C50.3978 18.6009 50.1868 18.6457 50.1202 18.545C50.0869 18.489 50.1313 18.433 50.2202 18.433C50.3201 18.433 50.3978 18.4554 50.3978 18.4778ZM32.4061 20.3358C32.4061 20.3918 32.3617 20.4478 32.295 20.4478C32.2395 20.4478 32.184 20.3918 32.184 20.3358C32.184 20.2687 32.2395 20.2239 32.295 20.2239C32.3617 20.2239 32.4061 20.2687 32.4061 20.3358ZM16.2024 26.0665C16.2579 26.2903 16.2246 26.4247 16.0247 26.6038C15.7249 26.8947 15.4805 26.8052 15.5916 26.4582C15.847 25.6188 16.0469 25.4956 16.2024 26.0665ZM45.6223 26.0329C45.6778 26.156 45.8999 26.3575 46.1109 26.4806C46.3108 26.6149 46.5107 26.8164 46.544 26.9395C46.5773 27.0738 46.6995 27.1634 46.8328 27.1634C46.9994 27.1634 47.066 27.2305 47.066 27.3984C47.066 27.5775 47.0216 27.6111 46.8217 27.5551C46.6773 27.5103 46.4774 27.3536 46.3664 27.2081C46.2553 27.0627 46.0554 26.9395 45.9444 26.9395C45.8222 26.9395 45.6112 26.8164 45.4668 26.6597C45.3335 26.5142 45.078 26.3351 44.9226 26.2792C44.5227 26.1225 44.5449 25.9545 44.9892 25.8986C45.178 25.8762 45.3779 25.8427 45.4223 25.8427C45.4668 25.8314 45.5556 25.921 45.6223 26.0329ZM13.3371 26.2344C13.4259 26.3463 13.5037 26.4806 13.5037 26.5478C13.5037 26.6038 13.6147 26.7269 13.7591 26.794C13.9368 26.8836 14.0145 27.0067 13.9923 27.1634C13.9701 27.2865 14.0145 27.3872 14.0701 27.3872C14.1367 27.3872 14.1922 27.488 14.1922 27.6111C14.1922 27.7342 14.1589 27.8349 14.1256 27.8349C13.9146 27.8349 13.6036 27.544 13.4037 27.1298C13.2704 26.8723 13.1038 26.6261 13.0261 26.5814C12.8817 26.4918 12.9261 26.0441 13.0816 26.0441C13.1261 26.0441 13.2371 26.1336 13.3371 26.2344ZM48.6653 26.4358C48.8874 26.5925 49.1206 26.7157 49.1651 26.7157C49.2095 26.7157 49.4649 27.0179 49.7315 27.3984C50.1646 28.0252 50.1868 28.0812 50.0203 28.2714C49.9203 28.3722 49.8092 28.6408 49.7759 28.8535C49.7315 29.0661 49.5871 29.4131 49.4427 29.6258C49.2983 29.8384 49.1206 30.2973 49.0318 30.6331C48.8763 31.2375 48.8763 31.2487 48.4099 31.2823C48.1655 31.3047 47.9545 31.3047 47.9545 31.2711C47.9545 31.2487 48.0323 31.0696 48.1322 30.8682C48.421 30.2861 48.3654 28.652 48.0212 27.5551C47.6991 26.5478 47.6658 26.3127 47.8768 26.2344C48.1322 26.1225 48.2544 26.156 48.6653 26.4358ZM46.6662 26.503C46.6329 26.559 46.5551 26.5814 46.4996 26.5366C46.4441 26.503 46.4219 26.4247 46.4663 26.3687C46.4996 26.3127 46.5773 26.2903 46.6329 26.3351C46.6884 26.3687 46.7106 26.447 46.6662 26.503ZM24.9095 27.3872C24.9428 27.4432 24.8984 27.4992 24.8096 27.4992C24.7096 27.4992 24.6319 27.4432 24.6319 27.3872C24.6319 27.3201 24.6763 27.2753 24.7318 27.2753C24.7985 27.2753 24.8762 27.3201 24.9095 27.3872ZM22.8327 28.1819C22.8105 28.2491 22.7438 28.2938 22.6883 28.2938C22.6328 28.2938 22.5661 28.2491 22.5439 28.1819C22.5217 28.1147 22.5883 28.0588 22.6883 28.0588C22.7883 28.0588 22.8549 28.1147 22.8327 28.1819ZM44.6782 28.2267C46.0665 28.2267 46.4663 28.3274 46.333 28.652C46.2997 28.7527 46.222 28.8423 46.1665 28.8423C46.1109 28.8423 46.0665 28.9207 46.0665 29.0102C46.0665 29.2116 45.9332 29.2229 45.7555 29.0438C45.6667 28.9542 45.5889 28.9542 45.4668 29.0549C45.3779 29.1333 45.2446 29.1669 45.178 29.1221C45.1114 29.0773 44.9781 29.0773 44.8781 29.1109C44.7448 29.1669 44.7337 29.2116 44.8448 29.346C45.0114 29.5474 44.9114 29.8496 44.7004 29.8496C44.6116 29.8496 44.4783 29.7713 44.4006 29.6818C44.3228 29.5922 44.2229 29.5138 44.1674 29.5138C44.1118 29.5138 44.0674 29.5922 44.0674 29.6818C44.0674 29.7713 43.9786 29.8608 43.8786 29.8608C43.7676 29.872 43.5343 29.8944 43.3677 29.9168C43.1123 29.9392 43.0345 29.8944 42.9346 29.6481C42.879 29.4803 42.7791 29.2564 42.7236 29.1557C42.5903 28.8983 42.6014 28.6968 42.7347 28.3386C42.8346 28.0812 42.8902 28.0476 43.1012 28.126C43.2345 28.1819 43.9453 28.2267 44.6782 28.2267ZM17.1464 30.6107C17.4796 31.0361 17.624 31.6292 17.7129 32.8381C17.7684 33.7447 17.7573 33.879 17.6018 33.879C17.413 33.879 17.3797 33.8007 17.1909 32.7598C17.1242 32.3568 17.0243 31.8307 16.9687 31.5845C16.791 30.7674 16.7355 30.2973 16.8243 30.3085C16.8688 30.3085 17.0243 30.4429 17.1464 30.6107ZM49.154 32.4463C49.2206 32.5918 49.2983 32.8269 49.3206 32.9836C49.3539 33.1403 49.4872 33.5432 49.6204 33.879C49.7537 34.2148 49.9314 34.7409 50.0314 35.0542C50.1202 35.3565 50.3534 36.0952 50.5311 36.6772C50.8754 37.8189 51.3641 38.9158 51.5973 39.0612C51.7861 39.1843 51.7639 39.3299 51.5307 39.3858C51.3974 39.4306 51.1975 39.8112 50.9087 40.6058C50.6755 41.2438 50.3756 42.0721 50.2312 42.4414C50.0203 42.9899 49.6315 44.1875 49.4427 44.8143C49.4205 44.8927 49.2983 44.9598 49.1762 44.9598C48.8874 44.9598 48.8874 44.7024 49.1762 43.8405C49.2983 43.4712 49.4094 43.0347 49.4094 42.8556C49.4205 42.4638 49.6315 41.5796 49.7426 41.4229C49.8648 41.2662 50.2868 39.4306 50.2202 39.3634C50.1868 39.3299 50.1091 39.3971 50.0536 39.5089C49.9425 39.7104 49.6649 39.7664 49.5982 39.6097C49.5871 39.5537 49.4316 39.4754 49.2761 39.4418C48.9985 39.3747 48.9874 39.3858 48.7985 40.2365C48.2655 42.6429 47.8102 44.8367 47.7657 45.206C47.6991 45.6762 47.477 45.7657 47.2882 45.4075C47.166 45.1836 47.2326 44.4562 47.3992 44.2323C47.4881 44.1092 47.588 43.4376 47.688 42.2176C47.7213 41.7811 47.7546 41.4117 47.7657 41.3782C47.7657 41.3445 47.7324 41.2326 47.6769 41.1095C47.6213 40.9752 47.6436 40.8745 47.7435 40.8185C47.9656 40.673 47.9768 39.05 47.7546 38.9269C47.6436 38.8598 47.6102 38.7702 47.6769 38.6247C47.899 38.0987 47.9101 38.1211 46.8883 36.5541C46.4885 35.9385 46.0887 35.446 45.9555 35.4124C45.8111 35.3789 45.7333 35.2669 45.7333 35.0766C45.7333 34.9311 45.7 34.6513 45.6667 34.4722C45.6223 34.2483 45.6556 34.0805 45.7778 33.9574C45.8777 33.8678 45.9555 33.7335 45.9555 33.6663C45.9555 33.6104 46.0554 33.5209 46.1776 33.4873C46.2997 33.4425 46.3886 33.3305 46.3775 33.2411C46.333 33.006 46.5218 32.95 46.7328 33.1291C46.9438 33.297 47.4436 34.7296 47.3437 34.8863C47.2993 34.9535 47.3992 35.1662 47.5658 35.3565C47.7324 35.5579 47.8324 35.793 47.8102 35.9161C47.7768 36.028 47.7991 36.1511 47.8546 36.1847C48.0323 36.2967 48.421 37.1361 48.3543 37.2928C48.321 37.3823 48.3765 37.5054 48.4654 37.5726C48.5542 37.651 48.6209 37.7741 48.6209 37.8412C48.6209 37.9084 48.7541 38.1099 48.9096 38.2889L49.1984 38.6135L49.5649 38.233L49.9425 37.8524L49.3206 36.3414C48.9762 35.5131 48.6542 34.808 48.5986 34.7968C48.5542 34.7744 48.5098 34.6401 48.5098 34.4946C48.5098 34.3491 48.4654 34.2036 48.4099 34.17C48.3543 34.1365 48.2766 33.9685 48.2322 33.8007C48.1989 33.6216 48.0656 33.3753 47.9323 33.2522L47.7102 33.006L47.9767 32.6031C48.1877 32.2672 48.2988 32.2001 48.632 32.2001C48.9318 32.2001 49.054 32.2561 49.154 32.4463ZM22.5217 33.6216C22.5217 33.8454 21.9664 34.5506 21.7999 34.5506C21.7221 34.5506 21.6333 34.5842 21.6111 34.6289C21.5555 34.7632 20.9669 35.155 20.4005 35.4348C20.1117 35.5803 19.6675 35.8937 19.401 36.1287C19.1455 36.3638 18.8901 36.5317 18.8345 36.4981C18.7901 36.4645 18.7457 36.2295 18.7457 35.9609C18.7457 35.4684 18.8678 35.3229 19.8119 34.7185C20.4782 34.2931 21.0224 33.8902 21.5222 33.4425L22.022 32.9948L22.2774 33.2298C22.4107 33.3642 22.5217 33.5432 22.5217 33.6216ZM43.3233 33.9685C43.3122 34.4387 43.0901 34.6961 42.7791 34.6289C42.6014 34.5954 42.5348 34.6401 42.5237 34.8192C42.5126 34.9535 42.4792 35.3452 42.4459 35.7146C42.4015 36.1176 42.4237 36.4085 42.5014 36.4869C42.6458 36.6324 42.668 37.0802 42.5348 37.1697C42.3904 37.2592 42.3793 40.1582 42.5237 40.326C42.6125 40.438 42.6125 40.4827 42.5348 40.4827C42.457 40.4827 42.4237 40.7513 42.4348 41.2102C42.4459 41.6132 42.4903 41.9378 42.5459 41.9378C42.5903 41.9378 42.6236 42.0162 42.6236 42.1169C42.6236 42.2176 42.5681 42.2512 42.4903 42.2064C42.3793 42.1393 42.3793 42.1616 42.4903 42.296C42.5903 42.4191 42.6014 42.4974 42.5126 42.5534C42.4348 42.5982 42.4237 43.0234 42.4681 43.8405C42.5348 44.9262 42.5237 45.0718 42.3571 45.1389C41.9018 45.318 41.8684 45.1165 41.8018 41.3445C41.7685 39.3634 41.7352 37.6622 41.7241 37.5726C41.713 37.4831 41.7352 37.1249 41.7796 36.7891C41.8129 36.4533 41.8684 35.6698 41.9129 35.0542C42.0128 33.588 42.0461 33.532 42.768 33.5768C43.3455 33.6104 43.3455 33.6216 43.3233 33.9685ZM44.8781 35.5243C44.8448 37.9532 44.7782 38.9493 44.6227 39.5313C44.4006 40.326 44.3006 41.1767 44.234 42.8892C44.1896 44.1987 44.2118 44.68 44.334 45.027C44.4228 45.2844 44.4561 45.553 44.4006 45.6202C44.2673 45.8553 43.9231 45.7097 43.712 45.3292C43.4788 44.9374 43.4677 44.5681 43.5788 38.9158C43.6343 36.2071 43.6676 35.7482 43.8675 35.1102C44.0008 34.7072 44.1674 34.282 44.2451 34.1589C44.3339 34.0357 44.4006 33.8566 44.4006 33.7447C44.4006 33.6104 44.4894 33.5432 44.656 33.5432H44.9114L44.8781 35.5243ZM31.1844 33.9238C31.1622 34.0581 31.4177 34.2148 31.6953 34.2148C31.8286 34.2148 32.1507 34.3379 32.4172 34.4834C32.6837 34.6289 33.1835 34.8304 33.5167 34.92C35.0049 35.3453 38.8142 35.6027 39.7028 35.3453C39.9471 35.2781 40.147 35.2781 40.3358 35.3676C40.5912 35.4907 40.6134 35.5691 40.68 36.6212C40.7245 37.2368 40.7356 38.7367 40.7134 39.9567C40.6912 41.1655 40.7134 42.1616 40.7467 42.1616C40.8689 42.1616 40.7911 43.1578 40.6689 43.2809C40.569 43.3816 40.5801 43.4824 40.68 43.7062C40.88 44.1204 40.6356 45.3627 40.3025 45.5978C40.0359 45.7769 40.0026 45.9671 40.2247 45.9671C40.4802 45.9671 40.2914 46.4149 40.0026 46.482C39.8249 46.5268 39.7694 46.6051 39.8249 46.7283C39.8583 46.8402 39.9027 46.8625 39.936 46.7731C39.9582 46.6947 40.0248 46.6387 40.0915 46.6387C40.1581 46.6387 40.1581 46.7059 40.0693 46.8066C39.9915 46.8962 39.8916 46.9409 39.836 46.9073C39.7805 46.8738 39.7028 46.9297 39.6694 47.0193C39.625 47.1312 39.4695 47.1984 39.2585 47.1984C38.9364 47.1984 38.9253 47.2096 39.1363 47.3662C39.2474 47.4558 39.3251 47.5342 39.2918 47.5453C39.0586 47.6237 38.1146 47.6125 37.5149 47.5229C37.115 47.467 36.2932 47.3886 35.6824 47.3662C35.0715 47.3438 34.1275 47.2879 33.5945 47.2431C32.6837 47.176 32.606 47.1872 32.3617 47.411C32.1173 47.6461 32.0729 47.6573 31.7842 47.5005C31.4621 47.3327 30.7957 46.6387 30.5625 46.2358C30.4958 46.1127 30.3404 45.9784 30.2071 45.9112C30.0738 45.8553 29.9073 45.6538 29.8295 45.4747C29.7518 45.2844 28.8188 43.7734 27.7638 42.1169C26.6976 40.4491 25.798 39.0053 25.7758 38.9045C25.7203 38.6919 27.0419 37.4271 27.6416 37.1249C28.1081 36.8787 28.3413 36.6212 28.2413 36.4533C28.208 36.3974 28.2969 36.2967 28.4412 36.2407C28.5856 36.1847 28.7966 35.9944 28.9077 35.8154C29.0187 35.6474 29.2298 35.3789 29.3631 35.2333C29.5074 35.0878 29.5963 34.9311 29.563 34.8752C29.5297 34.8192 29.5741 34.7409 29.674 34.7073C29.7629 34.6737 29.8851 34.4946 29.9517 34.3043C30.0405 34.0469 30.1183 33.9798 30.3182 34.0133C30.4625 34.0357 30.5625 34.1141 30.5403 34.1924C30.518 34.3043 30.5625 34.3043 30.7402 34.2148C30.8623 34.1476 30.9623 34.0133 30.9623 33.9238C30.9623 33.8231 31.0178 33.7671 31.0845 33.7894C31.1511 33.8118 31.1955 33.8678 31.1844 33.9238ZM17.7018 34.3939C17.7795 36.0168 17.7795 36.5205 17.6907 36.5653C17.5907 36.61 17.5463 36.3078 17.413 34.7185C17.3575 34.17 17.4019 33.9685 17.5574 34.0245C17.624 34.0469 17.7018 34.2148 17.7018 34.3939ZM12.2487 34.2148C13.2149 34.4274 14.0367 34.6961 14.3033 34.8863C14.4587 34.9871 14.7697 35.1102 15.003 35.155C15.2251 35.1998 15.4139 35.2893 15.4139 35.3676C15.4139 35.5467 16.0247 36.2295 16.1802 36.2295C16.2468 36.2295 16.3357 36.3638 16.369 36.5317C16.4134 36.7108 16.5911 37.0802 16.7577 37.36C17.1797 38.0427 17.4352 39.0836 17.3908 39.9454C17.3575 40.6171 17.3463 40.6506 17.0687 40.6842C16.7244 40.7289 16.6244 40.4715 16.6022 39.4754C16.5911 39.0948 16.4911 38.6807 16.3468 38.4121C16.2246 38.1658 16.0803 37.83 16.0469 37.6622C15.947 37.248 14.3255 35.6698 14.0034 35.6698C13.8702 35.6698 13.7258 35.6139 13.6925 35.5467C13.6481 35.4796 13.5481 35.4572 13.4592 35.4907C13.3704 35.5243 12.9928 35.4572 12.6152 35.3453C11.4157 34.9871 10.3939 34.8416 10.0941 34.9983C9.99415 35.0431 9.69428 35.1774 9.41667 35.2781C8.10614 35.7818 7.58416 36.2967 6.91779 37.7181C6.41802 38.7814 6.30696 39.2067 6.45134 39.4418C6.50686 39.5313 6.49576 39.5873 6.42912 39.5873C6.36248 39.5873 6.30696 39.5313 6.30696 39.4754C6.30696 39.3187 5.89603 39.3299 5.79608 39.4865C5.6517 39.7328 5.55174 39.3411 5.66281 38.9269C6.15147 36.9794 7.1399 35.4796 8.15055 35.1326C8.38375 35.0431 8.80581 34.8192 9.07238 34.6289C9.34999 34.4387 9.74985 34.2483 9.96085 34.2036C10.5383 34.0917 11.7267 34.0917 12.2487 34.2148ZM25.8758 34.9983C26.0979 35.1998 26.0979 35.2222 25.9202 35.2222C25.7536 35.2222 25.7425 35.2557 25.8425 35.3789C25.9535 35.502 25.9424 35.5579 25.8091 35.6363C25.5981 35.7594 25.2982 36.722 25.4093 36.9122C25.4648 36.9906 25.476 37.1137 25.4426 37.1921C25.376 37.36 24.8207 37.5726 24.4097 37.5726C24.2432 37.5726 24.0766 37.6062 24.0322 37.651C23.9877 37.6957 23.7879 37.7181 23.5768 37.6957C23.1548 37.6622 22.6661 37.9308 22.5106 38.2889C22.444 38.4233 22.2885 38.7478 22.1441 39.0165L21.8887 39.5202L22.1663 39.7776C22.3218 39.9231 22.4884 40.035 22.5328 40.035C22.5883 40.035 22.6328 40.1022 22.6328 40.1805C22.6328 40.2701 22.7327 40.4267 22.8549 40.5387C22.9771 40.6506 23.077 40.8073 23.077 40.8969C23.077 40.9752 23.1659 41.1319 23.277 41.2438C23.488 41.4789 23.699 41.7811 23.8545 42.1056C23.91 42.2288 24.1321 42.6093 24.3542 42.9451C24.5652 43.2809 24.8207 43.7286 24.9095 43.9301C25.0095 44.1316 25.2649 44.4562 25.476 44.6464C25.687 44.8367 25.9868 45.2396 26.1423 45.5418C26.2867 45.8329 26.4755 46.0791 26.5643 46.0791C26.6532 46.0791 26.7864 46.191 26.8864 46.3365C27.0308 46.5604 27.0308 46.6275 26.8864 46.8962C26.7642 47.1536 26.6865 47.1872 26.431 47.1312C25.587 46.9409 24.9873 46.7171 24.6096 46.4708C24.1321 46.1462 23.8323 46.1127 23.6324 46.3589C23.4436 46.594 23.277 46.5716 23.0326 46.2918C22.8771 46.1014 22.7661 46.0679 22.4551 46.1238C22.133 46.191 22.0331 46.1574 21.7999 45.9C21.4556 45.5306 21.4445 45.3404 21.7555 45.1725C21.9887 45.0494 22.1108 45.0829 22.7883 45.4299C22.9438 45.5083 23.077 45.4747 23.3325 45.2844C23.5213 45.1501 23.8212 45.0046 24.01 44.9598C24.5319 44.8591 24.4986 44.5793 23.8878 44.0084C23.599 43.7398 23.2881 43.516 23.2214 43.5047C23.1437 43.5047 22.9549 43.3033 22.7883 43.0571C22.6328 42.822 22.3773 42.5422 22.233 42.4414C22.0886 42.3519 21.9665 42.1952 21.9665 42.1056C21.9665 42.0162 21.811 41.8371 21.6333 41.6915C20.9669 41.1991 20.7559 39.3411 21.2557 38.5128C22.444 36.5429 23.8767 35.1102 24.6874 35.0542C24.8096 35.0542 25.0095 34.9871 25.1317 34.9087C25.4537 34.7296 25.6092 34.7409 25.8758 34.9983ZM10.5272 36.3974C10.716 36.6324 10.6161 39.3971 10.4162 39.6433C10.294 39.7888 9.98305 39.8112 8.62812 39.7888L6.97332 39.7664V39.3411C6.97332 39.1172 7.01774 38.9045 7.07327 38.8598C7.1399 38.8262 7.29539 38.5576 7.43978 38.2665C7.58416 37.9756 7.72855 37.7181 7.78406 37.7069C7.82847 37.6845 7.86177 37.595 7.86177 37.5054C7.86177 37.4159 7.96175 37.3487 8.07283 37.3487C8.19496 37.3487 8.30604 37.304 8.32824 37.2592C8.39491 37.0802 9.90528 36.2295 10.1496 36.2295C10.2829 36.2295 10.4495 36.3078 10.5272 36.3974ZM13.7258 36.4422C13.8813 36.4533 14.0145 36.5541 14.0812 36.722C14.1367 36.8787 14.3033 37.0802 14.4365 37.1697C14.5809 37.2704 14.7919 37.5726 14.903 37.8524C15.0252 38.1322 15.1585 38.3561 15.2029 38.3561C15.2584 38.3561 15.3473 38.5687 15.425 38.8262C15.4917 39.0948 15.5916 39.4418 15.6582 39.5985C15.7138 39.7552 15.7804 40.0462 15.8026 40.2477L15.847 40.5947L15.1029 40.5387C14.692 40.5051 14.0812 40.4267 13.748 40.3596C13.4148 40.2924 12.8151 40.2141 12.4263 40.1693C11.9599 40.1134 11.6934 40.035 11.6601 39.9343C11.6268 39.8223 11.6601 39.8 11.7933 39.8447C11.8933 39.8895 11.971 39.8671 11.971 39.8223C11.971 39.7664 11.8933 39.6993 11.8045 39.6545C11.7156 39.6209 11.6379 39.5202 11.6379 39.4194C11.6379 39.2963 11.7045 39.2627 11.9155 39.3187C12.2376 39.3971 12.2709 39.2963 12.0155 39.0165C11.8822 38.8598 11.86 38.7254 11.9488 38.2554C12.0155 37.9084 12.0155 37.651 11.9488 37.6174C11.8933 37.5838 11.9044 37.4831 11.9821 37.3935C12.0488 37.304 12.1487 37.0689 12.182 36.8787C12.2598 36.4869 12.5263 36.3526 13.1372 36.4085C13.326 36.4309 13.5814 36.4422 13.7258 36.4422ZM19.4565 37.3935C19.9007 37.5278 20.5782 38.0427 20.4671 38.1546C20.4449 38.177 20.4782 38.4121 20.5337 38.6807C20.667 39.2739 20.6115 39.4642 20.1228 40.0462L19.7453 40.5051L19.9896 40.9528C20.1339 41.2102 20.356 41.4789 20.4782 41.5684C20.8558 41.8147 20.9225 42.5869 20.6337 43.1802C20.3672 43.6951 20.3005 43.6727 20.0673 42.9451C19.8785 42.3407 19.6897 42.128 19.1899 41.9825C18.9567 41.9154 18.7346 41.7475 18.6346 41.5684C18.4569 41.255 18.4458 41.2774 19.5453 39.218C19.6453 39.0165 19.7342 38.6807 19.7453 38.4569V38.0539L19.1677 38.1099C18.6457 38.1434 18.5458 38.1211 18.3125 37.8636C17.7795 37.2928 18.3459 37.0578 19.4565 37.3935ZM45.6223 37.9643C45.6223 38.0539 45.5778 38.1322 45.5223 38.1322C45.3779 38.1322 45.278 37.9532 45.3668 37.8636C45.489 37.7405 45.6223 37.7965 45.6223 37.9643ZM45.911 38.9158C45.9555 39.2851 46.0332 39.6209 46.0776 39.6545C46.1331 39.688 46.1776 39.8112 46.1776 39.9343C46.1776 40.0462 46.1998 40.1469 46.222 40.1469C46.2442 40.1469 46.3441 40.1805 46.4441 40.2141C46.5662 40.2589 46.6218 40.2141 46.6218 40.0686C46.6218 39.9454 46.6884 39.7552 46.7772 39.6433C47.1549 39.1172 47.4659 40.1245 47.166 40.8969C47.0993 41.0647 47.0327 41.602 47.0216 42.0721C47.0105 42.5422 46.9661 42.9675 46.9216 43.0123C46.8772 43.0571 46.8439 43.169 46.8439 43.2585C46.8439 43.3369 46.7439 43.5495 46.6329 43.7174C46.5107 43.8853 46.3997 44.2211 46.3775 44.4562C46.333 45.0941 46.0443 45.1053 45.8 44.5009C45.6445 44.1092 45.6334 43.9413 45.7333 43.4376C45.8 43.1018 45.911 42.8108 45.9666 42.766C46.0221 42.7325 46.0443 42.6653 46.011 42.6093C45.9777 42.5534 45.9999 42.4862 46.0665 42.4414C46.2664 42.3183 46.5107 41.5908 46.5107 41.1431C46.5107 40.7625 46.4774 40.7066 46.2664 40.7066C46.122 40.7066 45.8999 40.8297 45.7667 40.9752C45.1891 41.5796 44.6449 41.2998 45.0003 40.5723C45.1003 40.382 45.178 40.0126 45.178 39.7552C45.178 39.162 45.489 38.2442 45.6778 38.2442C45.7889 38.2442 45.8555 38.468 45.911 38.9158ZM25.0428 39.8112C25.2871 39.9007 25.4426 40.0798 25.6314 40.4827C25.7758 40.7961 25.9313 41.0424 25.9757 41.0424C26.0201 41.0424 26.2645 41.3558 26.531 41.7251C26.7975 42.1056 27.2196 42.6541 27.4639 42.9563C27.7083 43.2473 28.0859 43.751 28.2969 44.0644C28.5079 44.389 28.8522 44.8591 29.0632 45.1053C29.2631 45.3627 29.4852 45.6873 29.5519 45.8216C29.6074 45.9671 29.7518 46.1015 29.8628 46.1351C29.9739 46.1686 30.1627 46.3589 30.2848 46.5604C30.407 46.7618 30.5736 47.0081 30.6513 47.1088C30.7291 47.2096 30.7402 47.3438 30.6957 47.3886C30.6402 47.4334 30.5736 47.411 30.5514 47.3327C30.518 47.2655 30.4625 47.1984 30.407 47.1984C30.3515 47.1984 30.1738 47.1424 29.9961 47.0753C29.5852 46.8962 29.3631 46.8625 28.5745 46.8178C27.7416 46.7731 27.7194 46.7731 27.5306 46.6499C27.2862 46.4932 27.575 46.1127 28.0081 46.0343C28.5967 45.9224 28.6633 45.7545 28.3191 45.206C28.1192 44.8927 27.9637 44.7583 27.8415 44.7919C27.6638 44.8479 26.742 44.0196 26.742 43.7958C26.742 43.7398 26.6198 43.5271 26.4643 43.3257C26.3089 43.1242 26.1867 42.9227 26.1867 42.878C26.1867 42.8332 26.0757 42.6429 25.9313 42.4527C25.7869 42.2624 25.5648 41.8594 25.4315 41.5684C25.2871 41.2662 25.0761 40.9976 24.9317 40.9416C24.7985 40.8856 24.543 40.6842 24.3653 40.4939L24.0433 40.1582L24.3098 39.9343C24.6207 39.6656 24.6207 39.6656 25.0428 39.8112ZM5.07419 41.1207C5.68502 43.0123 6.94 44.8143 7.85067 45.1389C8.12834 45.2396 8.43932 45.3627 8.53924 45.4075C8.63922 45.4635 8.91689 45.5418 9.1501 45.5866C9.3944 45.6202 9.63877 45.6985 9.69428 45.7433C9.87197 45.8888 10.8271 45.9783 12.1931 45.9671C12.8928 45.9671 13.9701 46.0231 14.5809 46.0791C15.1918 46.1462 15.8359 46.191 16.0247 46.191C16.7355 46.1798 17.2686 46.4373 16.7799 46.5604C16.6688 46.594 16.9132 46.6164 17.3241 46.6275C18.046 46.6387 18.4125 46.7954 18.4125 47.1088C18.4125 47.2431 17.2353 47.1424 16.6466 46.9521C16.4356 46.8849 16.0025 46.8625 15.636 46.9073C15.2806 46.9521 14.9585 46.9409 14.9252 46.8849C14.8919 46.829 14.7364 46.8066 14.5809 46.8402C14.4254 46.8625 14.2366 46.8402 14.1589 46.7731C14.0923 46.7171 13.3815 46.6275 12.5818 46.594C11.7933 46.5492 10.9604 46.4708 10.7493 46.4149C10.5383 46.3589 9.83866 46.2805 9.1945 46.247C7.90624 46.1574 7.60637 46.0791 7.23988 45.7097C7.09549 45.5754 6.87337 45.3516 6.72898 45.2284C6.3958 44.9151 6.08484 44.5345 6.08484 44.4225C6.08484 44.3778 5.8294 43.986 5.52953 43.5607C5.22967 43.1242 4.89649 42.6093 4.79654 42.3967C4.68548 42.1952 4.3634 41.8371 4.07465 41.6132C3.78589 41.3893 3.54156 41.1543 3.54156 41.0871C3.51934 40.8297 4.20792 40.3932 4.65216 40.382C4.77433 40.3708 4.9076 40.5947 5.07419 41.1207ZM6.37359 40.673C6.41802 40.7849 6.50687 41.0312 6.58461 41.2102C6.67346 41.4005 6.79562 41.6691 6.85115 41.8258C7.25098 42.7325 8.01726 43.5607 8.63922 43.7286C8.85022 43.7845 9.32779 43.8517 9.69428 43.8741L10.3606 43.9189V44.4114V44.9038L9.76095 44.8814C9.21671 44.8591 8.66142 44.6129 8.27273 44.2434C8.20606 44.1763 7.96175 43.9973 7.75075 43.8741C7.22878 43.5495 6.69567 42.8668 6.22922 41.949C5.79608 41.076 5.74055 40.4827 6.08484 40.4827C6.207 40.4827 6.34027 40.5723 6.37359 40.673ZM9.11679 40.7289C9.22781 40.7849 9.3944 40.8073 9.50548 40.7737C9.77205 40.6842 10.4162 41.1095 10.4162 41.3669C10.4162 41.4789 10.3384 41.7587 10.2496 41.9825C10.1496 42.2064 10.1052 42.4414 10.1385 42.4974C10.1718 42.5534 10.1718 42.7213 10.1274 42.878C10.0608 43.1466 10.0275 43.1578 9.41667 43.1242C8.53924 43.0682 7.69518 42.5982 7.3509 41.9714C7.08438 41.4901 7.1288 41.3222 7.48418 41.4565C7.67298 41.5236 7.67298 41.5125 7.49529 41.2662C7.39537 41.1095 7.30649 40.9416 7.30649 40.8745C7.30649 40.5387 8.57261 40.438 9.11679 40.7289ZM13.0816 40.8745C14.2477 40.9528 15.1918 41.1095 15.3028 41.2214C15.5583 41.4789 14.3366 42.7101 13.4148 43.1354C12.9595 43.348 11.9044 43.6167 11.5379 43.6167C11.1714 43.6167 11.1048 43.4936 11.338 43.2585C11.4268 43.169 11.4824 42.8892 11.4713 42.5534C11.4491 41.5573 11.8489 40.6282 12.2487 40.7737C12.3042 40.7961 12.6818 40.8409 13.0816 40.8745ZM16.5911 41.5236C16.6022 41.7587 16.5578 41.9714 16.5134 42.0049C16.4578 42.0385 16.4134 42.1616 16.4134 42.2847C16.4134 42.4862 15.0474 43.9525 14.8586 43.9525C14.8142 43.9525 14.592 44.098 14.3588 44.2882C14.1367 44.4673 13.9035 44.5905 13.848 44.5681C13.8035 44.5345 13.7036 44.6016 13.6481 44.7247C13.5148 44.9598 13.1594 45.0494 11.9932 45.1389C10.9937 45.206 10.8049 45.1053 11.0381 44.6353C11.1492 44.4114 11.3047 44.2994 11.5601 44.2547C14.0923 43.8293 15.6027 42.8892 15.9248 41.5236C16.0358 41.076 16.0691 41.0312 16.3357 41.0647C16.5356 41.0871 16.58 41.1767 16.5911 41.5236ZM25.798 42.7213C25.8314 42.7773 25.7869 42.8332 25.6981 42.8332C25.5981 42.8332 25.5204 42.7773 25.5204 42.7213C25.5204 42.6541 25.5648 42.6093 25.6203 42.6093C25.687 42.6093 25.7647 42.6541 25.798 42.7213ZM19.9229 44.5009C20.3005 44.7584 20.6892 45.1277 20.8558 45.3963C21.0113 45.6425 21.1668 45.8553 21.2223 45.8553C21.2668 45.8553 21.3001 45.9448 21.3001 46.0567C21.3001 46.3589 22.0553 46.9857 22.4551 47.0193C23.3991 47.12 23.8323 47.3775 23.5435 47.6685C23.4658 47.7468 23.2436 47.7244 22.8216 47.6013C22.4884 47.5005 22.0553 47.4222 21.8665 47.4222C21.6777 47.4222 21.5222 47.3774 21.5222 47.3215C21.5222 47.2767 21.2112 47.12 20.8336 46.9745C20.4449 46.8402 20.0895 46.6835 20.034 46.6275C19.9674 46.5716 19.7231 46.5268 19.4676 46.5268C19.1455 46.5268 18.9789 46.4708 18.8901 46.3029C18.8123 46.191 18.5013 45.9784 18.1904 45.844C17.8905 45.7097 17.6351 45.5754 17.6351 45.5306C17.6462 45.4187 18.4014 44.624 18.5013 44.624C18.5569 44.624 18.7124 44.5009 18.8567 44.3442C19.0011 44.1875 19.1455 44.0644 19.1899 44.0644C19.2233 44.0644 19.5565 44.2547 19.9229 44.5009ZM17.5796 45.8553C17.5463 45.9112 17.4685 45.9671 17.4019 45.9671C17.3463 45.9671 17.3019 45.9112 17.3019 45.8553C17.3019 45.7881 17.3797 45.7433 17.4796 45.7433C17.5685 45.7433 17.6129 45.7881 17.5796 45.8553ZM45.9666 46.3029C46.1331 46.3029 46.2886 46.3813 46.333 46.4708C46.3663 46.5604 46.4885 46.6387 46.5996 46.6387C46.7106 46.6387 46.8994 46.7394 47.0105 46.8625C47.1771 47.0529 47.1993 47.2096 47.1438 47.8251C47.0993 48.2393 47.0438 48.5975 47.0105 48.631C46.9772 48.6646 46.7106 48.5527 46.4108 48.396C46.1109 48.2281 45.7333 48.0938 45.5667 48.0938C45.1225 48.0938 44.967 47.8027 44.9559 47.0193C44.9559 46.247 45.0114 46.1462 45.4001 46.247C45.5556 46.2805 45.8111 46.3142 45.9666 46.3029ZM43.6898 46.7059C43.9675 46.9297 44.1563 47.1424 44.1229 47.176C44.0896 47.2096 44.123 47.2879 44.1785 47.3662C44.334 47.5565 44.3673 48.5639 44.2229 48.6198C44.1452 48.6422 43.9564 48.5415 43.7898 48.3736C43.4455 48.0602 43.0012 48.0154 42.668 48.2616C42.3793 48.4744 41.7463 48.4744 41.4908 48.2393C41.1132 47.8923 41.3687 46.2918 41.7796 46.4484C41.8684 46.482 42.1572 46.5492 42.4459 46.5827C42.8568 46.6499 42.9679 46.6275 43.0234 46.482C43.1123 46.2358 43.1234 46.247 43.6898 46.7059ZM49.1762 46.5268C49.2761 46.594 49.3872 46.5827 49.4872 46.4932C49.6093 46.3925 49.7204 46.4708 50.0425 46.8625C50.2757 47.1424 50.5644 47.4894 50.7088 47.6349C51.0309 47.9594 50.9309 48.0826 50.2646 48.2169C49.3094 48.396 49.1317 48.3624 48.5431 47.7804C48.0101 47.2655 47.7324 46.8849 47.7324 46.6499C47.7324 46.594 47.9434 46.5156 48.21 46.4932C48.4654 46.4708 48.7541 46.4484 48.843 46.4373C48.9318 46.426 49.0873 46.4596 49.1762 46.5268ZM10.5272 46.9857C11.3491 47.0416 12.3264 47.12 12.6929 47.1424C14.17 47.232 16.68 47.5342 16.791 47.6461C16.8688 47.7244 16.8577 47.8027 16.7688 47.8923C16.6466 48.0154 16.6577 48.0154 11.86 47.5901C10.9159 47.5118 10.0164 47.4446 9.86087 47.4334C9.21671 47.4334 8.86132 47.2991 8.86132 47.0864C8.86132 46.9633 8.89469 46.8625 8.9502 46.8625C8.99461 46.8625 9.70538 46.9185 10.5272 46.9857ZM23.9655 47.7692C23.9655 47.8251 23.9211 47.8699 23.8545 47.8699C23.799 47.8699 23.7434 47.7916 23.7434 47.6909C23.7434 47.6013 23.799 47.5565 23.8545 47.5901C23.9211 47.6237 23.9655 47.702 23.9655 47.7692ZM20.6004 47.8699C21.1557 47.9147 21.6666 47.9818 21.711 48.0154C21.811 48.0826 23.2881 48.2057 24.4097 48.2616C24.7429 48.2729 25.2316 48.34 25.4871 48.4184C25.7425 48.4855 26.3533 48.5527 26.842 48.5527C27.3418 48.5527 27.7638 48.6086 27.8082 48.6646C27.8527 48.7318 27.9304 48.7318 28.0303 48.6422C28.1414 48.5527 28.2302 48.5527 28.3302 48.631C28.4079 48.6982 28.7411 48.7765 29.0743 48.8101C29.4075 48.8549 30.1405 48.922 30.6846 48.9892C31.24 49.0451 32.8059 49.2242 34.1831 49.3809C35.5602 49.5376 37.3816 49.7391 38.2367 49.8287C39.0919 49.9182 40.258 50.0413 40.8355 50.1085C42.8124 50.3211 44.9114 50.4331 49.1762 50.5114C51.0975 50.545 52.719 50.6122 52.7745 50.6681C52.9078 50.8024 52.7634 51.127 52.5968 51.1046C52.5191 51.0934 52.3636 51.1158 52.2526 51.1718C52.1415 51.2165 51.7639 51.2277 51.4085 51.1942C51.0531 51.1718 50.6755 51.1942 50.5755 51.2501C50.4311 51.3285 50.3534 51.3285 50.2979 51.2501C50.2313 51.1382 48.954 51.0598 45.6778 50.9479C42.4903 50.8472 41.4575 50.7689 39.0697 50.5002C37.5815 50.3435 35.6935 50.142 32.6282 49.8175C30.6735 49.616 28.2191 49.3474 27.0197 49.2131C24.5763 48.922 22.9993 48.7542 21.7443 48.6534C19.2899 48.452 18.6346 48.284 18.6346 47.8475C18.6346 47.6349 18.679 47.6237 19.1122 47.702C19.3676 47.7356 20.034 47.814 20.6004 47.8699ZM35.9822 48.2057C36.5264 48.2729 37.5482 48.3736 38.259 48.4407C40.78 48.687 40.9577 48.7094 40.9577 48.8213C40.9577 49.0116 38.5588 49.0116 36.9484 48.8325C36.1155 48.7318 35.016 48.6534 34.494 48.6534C33.7944 48.6534 33.5056 48.6086 33.4056 48.4855C33.339 48.396 33.3057 48.2729 33.3501 48.2057C33.439 48.0602 34.7272 48.0602 35.9822 48.2057ZM9.69428 48.3176C9.73875 48.3848 9.99415 48.4296 10.2829 48.4296C10.5716 48.4296 11.7267 48.5303 12.8373 48.6534C13.959 48.7653 14.9474 48.8325 15.0363 48.7989C15.3139 48.6982 17.9017 49.0004 18.0682 49.1571C18.3681 49.4593 18.0904 49.5488 17.102 49.4929C16.5689 49.4593 15.3917 49.4033 14.4698 49.3698C12.604 49.2914 12.4263 49.2802 12.1931 49.1794C12.1043 49.1347 11.6268 49.0787 11.1381 49.0451C9.3944 48.9444 8.7614 48.8213 8.52814 48.5639C8.40602 48.4407 8.30604 48.3064 8.30604 48.2953C8.30604 48.1945 9.63877 48.2281 9.69428 48.3176ZM54.8402 48.3736C54.8402 48.4631 54.7958 48.5415 54.7292 48.5415C54.6736 48.5415 54.6181 48.4631 54.6181 48.3736C54.6181 48.284 54.6736 48.2057 54.7292 48.2057C54.7958 48.2057 54.8402 48.284 54.8402 48.3736ZM54.7625 48.6646C55.0846 48.6646 54.9624 48.9109 54.3849 49.4257L53.8296 49.9182L51.5862 49.8398C45.9555 49.672 44.9448 49.6272 44.8892 49.5376C44.8559 49.4816 44.7004 49.4369 44.5561 49.4369C44.3784 49.4369 44.2895 49.3809 44.3228 49.2914C44.3562 49.1907 44.8226 49.1571 46.1331 49.1459C48.6542 49.1235 53.874 48.7653 54.0295 48.6086C54.074 48.5639 54.2183 48.5639 54.3405 48.5975C54.4626 48.6422 54.6514 48.6758 54.7625 48.6646ZM10.5605 50.3324C10.9048 50.6009 11.1936 50.8584 11.1936 50.9031C11.1936 51.1046 12.1931 51.6755 12.5263 51.6755C12.8706 51.6755 13.326 51.8769 13.848 52.2575C13.9923 52.3694 14.2033 52.4589 14.3144 52.4589C14.4254 52.4589 14.6142 52.6044 14.7475 52.7947L14.9807 53.1305H14.6809C14.5143 53.1305 14.3144 53.22 14.2255 53.3208C14.1145 53.4663 14.0479 53.4887 14.0145 53.3767C13.9812 53.3096 13.848 53.2424 13.7147 53.2424C12.9928 53.2313 11.2825 52.4142 11.1048 51.9889C11.0825 51.9441 11.0048 51.8993 10.9271 51.8993C10.8049 51.8993 9.76095 50.8696 9.42777 50.4107C9.29448 50.2428 9.30558 50.1868 9.47218 49.9853C9.71648 49.7167 9.76095 49.7279 10.5605 50.3324ZM17.7462 49.9965C18.5124 50.0637 19.7119 50.1196 20.4116 50.1196C21.1113 50.1196 21.8887 50.1644 22.133 50.2316C22.8993 50.4331 24.4542 50.7017 26.642 51.0039C27.0419 51.0598 27.5195 51.1382 27.6972 51.183C27.8749 51.2165 28.1969 51.2725 28.4079 51.3061C28.6189 51.3396 28.8633 51.418 28.9299 51.474C29.0076 51.5411 29.152 51.5524 29.252 51.5187C29.3519 51.474 29.563 51.53 29.7074 51.6307C29.8628 51.7202 30.0516 51.7762 30.1294 51.7426C30.2626 51.6978 31.8286 52.056 32.4061 52.2575C32.8503 52.4254 34.2608 52.7947 34.4274 52.7947C34.5384 52.7947 34.8383 52.8619 35.0937 52.9514C36.1044 53.276 38.159 53.914 38.9586 54.1491C39.414 54.2833 40.0359 54.4848 40.3358 54.5967C40.6356 54.7198 41.0021 54.8094 41.1465 54.8094C41.2909 54.8094 41.5686 54.8878 41.7574 54.9885C41.9462 55.0893 42.4015 55.2235 42.7791 55.3019C43.3677 55.425 43.4566 55.481 43.4566 55.7048C43.4566 55.9399 43.4011 55.9623 42.7902 55.9958C42.1461 56.0294 41.091 55.8839 40.7467 55.7048C40.0582 55.3691 39.3362 55.1452 38.892 55.1452C38.681 55.1452 38.5144 55.1116 38.5144 55.0556C38.5144 54.9213 37.948 54.6975 37.6148 54.6975C37.4482 54.6975 37.2705 54.6415 37.2261 54.5744C37.1928 54.5072 37.0484 54.4848 36.9262 54.5184C36.8041 54.552 36.4487 54.4513 36.1377 54.3057C35.8268 54.1602 35.327 53.9811 35.0271 53.914C34.7272 53.8468 34.3607 53.6902 34.2053 53.5782C34.0387 53.4439 33.7611 53.3544 33.4834 53.3544C33.0613 53.3544 32.3728 53.2089 31.9063 53.0186C31.7842 52.9626 31.4066 52.8619 31.0734 52.7835C30.7402 52.7164 30.2959 52.582 30.096 52.4925C29.8962 52.403 29.3742 52.2575 28.9299 52.1679C28.4968 52.0784 28.0081 51.9441 27.8527 51.8545C27.4972 51.6642 25.2427 51.5076 25.1317 51.6642C25.0317 51.8322 24.854 51.8209 24.854 51.6307C24.854 51.2725 16.9354 51.2054 16.4689 51.5635C16.2801 51.7202 14.8586 51.5971 14.5809 51.4068C14.4254 51.3061 14.2366 51.2277 14.1478 51.2277C14.059 51.2277 13.848 51.1606 13.6703 51.0711C13.2038 50.836 12.8373 50.6905 12.5152 50.6233C12.0821 50.5338 11.6934 50.1756 11.7822 49.9629C11.8489 49.7951 12.0821 49.7727 14.1034 49.8287C15.3473 49.8511 16.9798 49.9294 17.7462 49.9965ZM25.3982 49.9853C25.587 50.0861 25.9424 50.1085 26.6754 50.0637C28.7966 49.907 29.041 49.9742 28.63 50.5338C28.308 50.9703 28.0859 51.0151 27.4417 50.8248C27.1641 50.7353 26.7198 50.6681 26.4755 50.6681C26.22 50.6681 25.5981 50.5898 25.0761 50.489C24.1654 50.31 23.6879 50.0749 23.8101 49.8622C23.8989 49.7279 25.0761 49.8174 25.3982 49.9853ZM26.8531 49.8175C26.8531 49.8511 26.8086 49.907 26.742 49.9405C26.6865 49.9742 26.6309 49.9518 26.6309 49.8958C26.6309 49.8287 26.6865 49.7727 26.742 49.7727C26.8086 49.7727 26.8531 49.7951 26.8531 49.8175ZM30.9179 50.3435C30.9512 50.4107 30.7624 50.6905 30.4847 50.9703C30.0405 51.4292 29.9517 51.474 29.6185 51.4068C28.9632 51.2837 28.8744 51.1718 29.1853 50.8472C29.3297 50.6793 29.5074 50.5562 29.5852 50.5562C29.6518 50.5562 29.774 50.4778 29.8517 50.3883C30.0183 50.198 30.7957 50.1644 30.9179 50.3435ZM32.4838 50.4107C32.5282 50.5226 32.4616 50.6569 32.2839 50.7912C32.1396 50.9031 31.8841 51.1046 31.7175 51.2277C31.3955 51.474 31.0178 51.4964 31.0178 51.2613C31.0178 51.0822 32.0507 50.2204 32.2506 50.2204C32.3394 50.2204 32.4394 50.2987 32.4838 50.4107ZM34.4052 50.7689C34.4052 50.9255 33.6611 51.4516 33.439 51.4516C33.3279 51.4516 33.0947 51.5524 32.9058 51.6755C32.3061 52.0784 31.7731 51.8657 32.2728 51.418C32.8725 50.8696 33.2502 50.6905 33.8277 50.6793C34.1386 50.6681 34.4052 50.7129 34.4052 50.7689ZM36.5042 50.8248C36.6152 50.9479 36.5819 51.0375 36.382 51.2277C36.2488 51.3509 36.0045 51.4852 35.849 51.53C35.6935 51.5635 35.2159 51.765 34.7717 51.9889C34.0942 52.3246 33.9387 52.3582 33.7944 52.2351C33.6389 52.1007 33.65 52.056 33.9276 51.765C34.2386 51.4404 35.0826 50.9367 35.6269 50.7689C36.0711 50.6345 36.3709 50.6569 36.5042 50.8248ZM39.1252 50.892C39.2252 51.0487 38.8809 51.5635 38.6921 51.5635C38.6143 51.5635 38.4811 51.6307 38.4144 51.7202C38.3478 51.7986 38.1146 51.8993 37.9036 51.9329C37.6926 51.9665 37.3705 52.1007 37.1928 52.2239C37.0151 52.3582 36.7596 52.4589 36.6152 52.4589C36.482 52.4589 36.2821 52.5261 36.1932 52.6156C35.8934 52.8731 35.5602 52.9291 35.4047 52.7387C35.2048 52.4925 35.5047 52.1791 36.1377 52C36.4042 51.9217 36.8263 51.6642 37.0817 51.4292C37.3372 51.1942 37.6259 50.9927 37.7259 50.9815C37.8259 50.9815 37.9591 50.9591 38.0369 50.9591C38.1035 50.9479 38.2034 50.9031 38.2479 50.8584C38.37 50.7353 39.0475 50.7689 39.1252 50.892ZM44.0452 51.8098C43.9008 51.9665 43.5899 52.1791 43.3455 52.3022C42.9568 52.4813 42.0128 53.0745 41.8462 53.2424C41.6685 53.4215 40.6245 53.6789 40.2691 53.623C40.0359 53.5782 39.8472 53.6006 39.8027 53.6789C39.6917 53.8468 39.2918 53.8356 39.2918 53.6565C39.2918 53.4103 39.5473 53.2424 39.9138 53.2424C40.1137 53.2424 40.3025 53.1976 40.3358 53.1417C40.3691 53.0857 40.6578 52.9626 40.9688 52.8507C41.2909 52.75 41.7018 52.5485 41.8907 52.403C42.557 51.8993 43.4455 51.4404 43.6343 51.4852C43.7454 51.5187 43.8564 51.4628 43.9008 51.362C43.9564 51.2054 43.9786 51.2054 44.1341 51.362C44.2895 51.5187 44.2784 51.5635 44.0452 51.8098ZM41.3353 51.53C41.3687 51.6083 41.3242 51.7426 41.2354 51.8322C41.0132 52.0448 39.7805 52.6268 39.2141 52.7835C38.9697 52.8507 38.581 53.0298 38.3589 53.1865C38.0369 53.4103 37.9036 53.4439 37.7259 53.3544C37.3372 53.1417 37.5482 52.5709 38.048 52.5149C38.3256 52.4925 38.8142 52.2687 38.9031 52.1344C38.9364 52.0672 39.0475 52.0113 39.1474 52.0113C39.2363 52.0113 39.4806 51.8657 39.6917 51.6866C40.0026 51.3956 40.1359 51.362 40.6689 51.3733C41.0577 51.3844 41.302 51.4404 41.3353 51.53ZM50.8309 51.9105C51.0198 51.9776 51.1752 52.0784 51.1752 52.1344C51.1752 52.1903 51.2863 52.2239 51.4307 52.2015C51.7639 52.1679 51.7528 52.5037 51.4196 52.5485C51.2752 52.5709 50.8532 52.8731 50.4756 53.2313C50.098 53.5782 49.5538 54.0371 49.265 54.2386C48.9207 54.4848 48.7652 54.6639 48.8097 54.7758C48.8652 54.9102 48.8208 54.9325 48.6542 54.8766C48.4987 54.8206 48.321 54.8878 48.0878 55.0893C47.9101 55.2459 47.7102 55.3691 47.6436 55.3691C47.5325 55.3691 47.2104 55.5145 46.5996 55.828C46.222 56.0294 45.0669 56.8241 44.8004 57.0704C44.3784 57.4621 44.2118 57.2158 44.3673 56.4659C44.4672 55.9847 44.3562 55.2683 44.1452 55.134C44.1007 55.1004 44.0785 54.8878 44.1229 54.6751C44.2118 54.205 45.5445 52.75 46.2109 52.403C46.433 52.2798 46.6218 52.1231 46.6218 52.0448C46.6218 51.9776 46.7106 51.8881 46.8217 51.8657C47.2326 51.7538 50.4867 51.7874 50.8309 51.9105ZM22.2996 52.2463C22.5772 52.3134 22.8771 52.4254 22.966 52.5037C23.0548 52.582 23.2547 52.6828 23.4102 52.7164C24.2987 52.9178 24.7096 53.0522 25.165 53.2984C25.587 53.5334 25.8425 53.5782 26.5754 53.5782C27.0974 53.5894 27.5306 53.6454 27.6416 53.7237C27.9082 53.9364 28.7633 55.2347 29.1298 55.9847C29.3075 56.354 29.5852 56.8801 29.7407 57.1599C29.9073 57.4397 30.0738 57.7978 30.1072 57.9658C30.1516 58.1225 30.2959 58.4023 30.4403 58.5814C30.5736 58.7493 30.7624 59.0291 30.8512 59.2082C31.0956 59.7006 30.929 59.7678 29.4408 59.7006C28.1192 59.6335 27.5639 59.5551 26.3533 59.2417C24.8318 58.8612 24.4542 58.738 24.1321 58.5814C23.9544 58.4918 23.5768 58.3127 23.2992 58.1896C22.6994 57.9098 22.0442 57.2382 21.8665 56.7234C21.711 56.2421 21.711 55.0893 21.8554 54.7982C21.922 54.6751 22.0886 54.5856 22.2441 54.5856C22.4107 54.5856 22.5883 54.4736 22.6883 54.3169C22.8549 54.0595 22.8549 54.0147 22.6883 53.7573C22.5883 53.6118 22.3218 53.3767 22.0997 53.2648C21.1224 52.7387 20.7448 52.5149 20.7448 52.4478C20.7448 52.3694 21.3778 52.1455 21.6333 52.1344C21.7221 52.1344 22.022 52.1791 22.2996 52.2463ZM45.3446 52.403C45.3446 52.5261 45.2446 52.6716 45.1225 52.7387C45.0003 52.7947 44.5449 53.1417 44.1229 53.4887C43.2456 54.1938 42.4903 54.4848 42.0683 54.2498C41.7685 54.0819 41.8351 53.8804 42.246 53.7573C43.0234 53.5222 43.2678 53.388 43.7343 52.9626C44.445 52.3135 44.756 52.1231 45.0669 52.1567C45.2557 52.1679 45.3446 52.2463 45.3446 52.403ZM28.8744 52.9067C29.0743 53.0298 29.3297 53.1305 29.4519 53.1305C29.8517 53.1305 30.8179 53.7909 31.0067 54.1938C31.1178 54.4065 31.1733 54.6304 31.1289 54.6863C31.0623 54.8094 31.1955 55.1564 31.5621 55.7608C31.7175 56.0071 31.9952 56.5107 32.1951 56.8801C32.3839 57.2495 32.7392 57.8874 32.9725 58.3015C33.4279 59.0851 33.5056 59.3984 33.2502 59.3984C33.0502 59.3984 32.8392 59.0962 32.0729 57.7195C31.7398 57.1375 31.3177 56.4324 31.1178 56.1525C30.929 55.8727 30.5958 55.3019 30.3959 54.8766C30.0072 54.0819 29.7074 53.8468 29.2298 53.9587C29.0632 54.0035 28.841 53.8692 28.3635 53.4327C28.0081 53.1081 27.7638 52.8059 27.8082 52.7611C27.9637 52.6044 28.519 52.6828 28.8744 52.9067ZM43.29 53.1305C43.29 53.1865 43.2345 53.2424 43.1678 53.2424C43.1123 53.2424 43.0901 53.1865 43.1234 53.1305C43.1567 53.0633 43.2122 53.0186 43.2456 53.0186C43.2678 53.0186 43.29 53.0633 43.29 53.1305ZM31.6287 53.9252C31.6287 53.9924 31.7175 54.0147 31.8286 53.9811C32.2506 53.858 32.8281 54.7982 32.717 55.425C32.6726 55.6041 32.7615 55.8167 32.9614 56.063C33.339 56.5219 33.7388 57.2271 33.7388 57.4173C33.7388 57.4956 33.9165 57.9098 34.1275 58.3239C34.5273 59.1074 34.5384 59.2865 34.1942 59.2865C34.0498 59.2865 33.8499 58.9843 33.4945 58.1896C33.2168 57.5964 32.6948 56.6562 32.3172 56.1078C31.9508 55.5593 31.6731 55.0445 31.7064 54.9661C31.7398 54.8766 31.6509 54.6639 31.5287 54.4848C31.2511 54.1043 31.2289 53.8021 31.4621 53.8021C31.5509 53.8021 31.6287 53.858 31.6287 53.9252ZM41.4575 54.1378C41.4908 54.1938 41.4464 54.2498 41.3575 54.2498C41.2576 54.2498 41.1798 54.1938 41.1798 54.1378C41.1798 54.0707 41.2243 54.0259 41.2798 54.0259C41.3464 54.0259 41.4242 54.0707 41.4575 54.1378ZM43.4566 54.3617C43.4233 54.4176 43.29 54.4736 43.1678 54.4736C43.0456 54.4736 42.979 54.4176 43.0123 54.3617C43.0456 54.2945 43.1789 54.2498 43.3011 54.2498C43.4233 54.2498 43.4899 54.2945 43.4566 54.3617ZM33.5833 54.7198C33.6833 54.9213 33.8388 55.134 33.9165 55.1787C34.0054 55.2235 34.072 55.3467 34.072 55.4362C34.072 55.6265 35.6157 58.3575 36.0267 58.906C36.2932 59.2529 36.2932 59.2753 36.1044 59.376C35.8046 59.5327 35.4492 59.3425 35.3492 58.9843C35.3159 58.8164 35.0826 58.3799 34.8383 58.0106C34.6051 57.6524 34.4052 57.3166 34.4052 57.2718C34.4052 57.2271 34.2497 56.992 34.0609 56.7569C33.6389 56.2309 32.9281 54.7198 33.0058 54.5072C33.1058 54.2498 33.3945 54.3505 33.5833 54.7198ZM35.6824 55.481C35.8157 55.7944 35.9934 56.1078 36.0711 56.1525C36.1488 56.1973 36.1821 56.3204 36.1488 56.4212C36.1044 56.5219 36.1266 56.6002 36.1932 56.6002C36.2488 56.6002 36.3709 56.7682 36.4598 56.9808C36.5486 57.1935 36.6708 57.3949 36.7263 57.4285C36.7707 57.4621 36.8485 57.6412 36.8818 57.8315C36.9262 58.0217 37.1372 58.3463 37.3483 58.5702C37.6704 58.8947 37.7259 59.0067 37.6148 59.1298C37.5482 59.2193 37.426 59.2865 37.3594 59.2865C37.215 59.2865 36.6708 58.738 36.3709 58.2791C36.2599 58.1225 35.9823 57.7195 35.7379 57.3837C35.4936 57.048 35.2937 56.7234 35.2937 56.6674C35.2937 56.6226 35.116 56.3316 34.8938 56.0294C34.6828 55.7272 34.5273 55.4362 34.5606 55.3802C34.5939 55.3243 34.5495 55.2571 34.4718 55.2235C34.3385 55.1676 34.2941 54.7311 34.3941 54.5072C34.4052 54.5072 34.6384 54.5856 34.916 54.6975C35.3714 54.8654 35.4603 54.9549 35.6824 55.481ZM30.407 55.6489C30.618 56.0854 31.0734 57.0256 31.4066 57.7531C31.7398 58.4695 32.084 59.0627 32.1618 59.0627C32.2284 59.0627 32.295 59.1298 32.295 59.2193C32.295 59.3089 32.3283 59.4544 32.3617 59.5551C32.4061 59.6782 32.3394 59.723 32.084 59.7118C31.7175 59.7006 31.4732 59.432 31.3399 58.8836C31.2955 58.7045 31.14 58.3687 30.9956 58.1449C30.8623 57.9098 30.7402 57.6747 30.7402 57.6076C30.7402 57.5404 30.4958 56.9696 30.1849 56.3428C29.5852 55.1228 29.5074 54.7646 29.8295 54.8318C29.9406 54.8542 30.1849 55.19 30.407 55.6489ZM36.6708 55.1564C36.9484 55.3243 37.1039 55.5146 37.1817 55.7944C37.2372 56.0294 37.5149 56.5778 37.7925 57.0256C38.3034 57.8538 38.3922 58.3015 38.0591 58.3687C37.8259 58.4135 37.0928 57.6412 37.0151 57.2606C36.9707 57.0927 36.8707 56.8913 36.7818 56.8129C36.693 56.7458 36.6264 56.6226 36.6264 56.5443C36.6264 56.4659 36.5597 56.3428 36.4709 56.2756C36.1821 56.0294 35.9823 54.9213 36.2377 54.9213C36.2599 54.9213 36.4598 55.0221 36.6708 55.1564ZM38.7476 56.8017C39.6361 58.0217 39.9249 58.5814 39.7694 58.738C39.6028 58.906 39.0697 58.6149 38.681 58.1449C38.3478 57.7419 37.6259 56.2756 37.6259 55.9958C37.6259 55.8951 37.7148 55.8167 37.837 55.8167C37.9702 55.8167 38.2923 56.1637 38.7476 56.8017ZM39.4917 56.3988C39.5806 56.4883 39.6583 56.4883 39.7916 56.3764C40.0359 56.1749 40.5135 56.5107 40.5246 56.9136C40.5468 57.4957 40.569 57.5404 40.7911 57.6636C41.2687 57.9098 41.3131 57.9546 41.1687 58.1225C41.1021 58.212 40.88 58.2791 40.68 58.2791C40.3913 58.2791 40.2692 58.2008 40.0804 57.9098C39.9582 57.7195 39.7361 57.3726 39.5917 57.1599C39.1474 56.5107 39.0808 55.9847 39.4917 56.3988ZM42.0905 57.0704C42.5681 57.63 42.6014 57.9769 42.1683 58.0329C41.9573 58.0553 41.7352 57.921 41.2576 57.4509C40.4357 56.6562 40.4357 56.4324 41.2798 56.5443C41.5575 56.5778 41.7796 56.7234 42.0905 57.0704ZM43.9008 56.9472C44.0785 57.1151 43.7787 57.3054 43.2122 57.3502C42.6347 57.4061 42.3127 57.2158 42.4348 56.8913C42.4903 56.7682 42.6458 56.7458 43.1456 56.7906C43.501 56.8241 43.8342 56.8913 43.9008 56.9472Z" fill="white"/>
<path d="M32.7472 5.6887C32.3652 6.14661 32.0618 6.57101 32.0618 6.62685C32.0618 6.68269 31.9044 6.83905 31.7135 6.97307C31.3202 7.26345 31.3426 7.33046 31.8932 7.36397C32.2415 7.38631 32.354 7.33046 32.6573 6.93957C33.5675 5.82272 33.6012 5.80039 33.7922 5.95674C33.8934 6.03492 33.972 6.16895 33.972 6.23595C33.972 6.31413 34.1968 6.59335 34.4777 6.86139C34.9159 7.28579 34.9833 7.3193 34.9833 7.11826C34.9833 6.98424 34.8597 6.72736 34.7024 6.54867C34.5451 6.35881 34.4215 6.13544 34.4215 6.04609C34.4215 5.84506 33.9833 5.06327 33.8034 4.94042C33.5675 4.76172 33.4102 4.87341 32.7472 5.6887Z" fill="white"/>
<path d="M25.1311 6.18511C25.1538 6.84 25.199 7.4061 25.2216 7.4283C25.2442 7.4505 25.3347 7.4394 25.4364 7.4061C25.5722 7.3506 25.6061 7.1397 25.6061 6.44041V5.55242H26.2845H26.963V6.76231C26.963 7.69469 26.9969 7.98329 27.1213 8.02769C27.2456 8.08319 27.3022 7.8834 27.3587 7.0731C27.4039 6.50701 27.4152 5.82992 27.3927 5.55242L27.3587 5.05293L26.228 5.01963L25.0859 4.98633L25.1311 6.18511Z" fill="white"/>
<path d="M29.2334 5.512C28.9357 5.69191 28.616 5.97302 28.5278 6.14168C28.3844 6.43403 28.3955 6.46777 28.8255 6.86131C29.0681 7.0862 29.3989 7.47975 29.5532 7.73837C29.7186 8.00824 29.895 8.22188 29.9502 8.22188C30.2148 8.22188 30.1707 7.85081 29.8509 7.34483C29.6635 7.04123 29.5091 6.76012 29.5091 6.71514C29.5091 6.65892 29.7076 6.64767 29.9502 6.67016C30.2589 6.69266 30.4022 6.65892 30.4463 6.54647C30.5125 6.36657 30.3251 6.1979 30.0384 6.1979C29.7847 6.1979 29.6635 5.97302 29.8509 5.84933C29.9391 5.79311 30.1817 5.72564 30.3912 5.68066C30.9866 5.57947 31.0528 5.54573 30.9866 5.35458C30.8654 5.05099 29.8729 5.14094 29.2334 5.512Z" fill="white"/>
<path d="M40.7122 5.31163C40.6681 5.51027 40.6461 5.75306 40.624 6.09517L40.613 6.47039L40.2053 6.21657C39.9738 6.0731 39.6984 5.9186 39.5992 5.85238C39.5 5.78617 39.3788 5.77513 39.3347 5.81927C39.2135 5.94067 39.4559 6.31589 40.1171 7.05529C40.6461 7.62916 40.7232 7.77262 40.7232 8.18092C40.7232 8.4348 40.7673 8.66654 40.8224 8.6996C40.9877 8.79897 41.2742 8.24717 41.2742 7.83884C41.2742 7.5188 41.3293 7.44155 41.6488 7.28704C42.1227 7.06633 43.1696 6.12828 43.0814 5.99585C42.9272 5.74202 42.1557 6.02896 41.6048 6.5366C41.164 6.94493 41.1089 6.90079 40.9987 5.86342C40.9546 5.52131 40.8775 5.23438 40.8224 5.23438C40.7673 5.23438 40.7122 5.26748 40.7122 5.31163Z" fill="white"/>
<path d="M21.6592 6.04205C21.5371 6.25437 21.3374 6.45551 21.2375 6.47786C21.1376 6.51138 21.2153 6.53373 21.4151 6.54491C21.7369 6.55608 21.9477 6.77958 21.6259 6.77958C21.5482 6.77958 21.4373 6.89132 21.3818 7.02542C21.3152 7.15951 21.1487 7.30478 20.9934 7.33831C20.7603 7.39418 20.7492 7.41653 20.9046 7.48358C21.0599 7.53945 21.0821 7.64002 21.0377 7.91939C20.9379 8.50044 20.7492 8.9139 20.616 8.86925C20.4829 8.81337 20.4829 8.80221 20.616 8.29932C20.6715 8.07583 20.6604 7.99761 20.5716 8.05348C20.494 8.09818 20.3497 8.07583 20.2276 8.01996C20.0834 7.93056 19.9835 7.94174 19.9058 8.04231C19.7282 8.25461 19.7171 8.82454 19.8836 9.12624C19.9724 9.28271 20.0501 9.50621 20.0612 9.62913C20.0834 9.87496 19.806 10.2437 19.6062 10.2437C19.3842 10.2437 18.8849 10.6907 18.8849 10.8918C18.8849 10.9924 19.0069 11.3277 19.1623 11.6405C19.4286 12.1658 19.4952 12.3781 19.6284 13.0597C19.6838 13.3391 19.6506 13.3726 19.3731 13.3726C19.1068 13.3726 19.018 13.2944 18.8404 12.9256C18.6962 12.6239 18.563 12.4786 18.441 12.501C18.341 12.5233 18.1635 12.4563 18.0525 12.3669C17.9415 12.2775 17.6974 12.2216 17.4754 12.244C17.2535 12.2551 17.1093 12.2328 17.1426 12.1769C17.309 11.9199 16.399 12.1099 15.3559 12.5457C14.7344 12.8139 14.0907 13.0709 13.9132 13.1044C13.436 13.2273 12.8035 13.6967 12.7812 13.9425C12.7812 13.9761 13.5359 13.9872 14.457 13.9649C15.833 13.9313 16.1327 13.9537 16.0772 14.0766C16.0106 14.2554 16.5988 14.5459 16.7985 14.4118C16.8762 14.3671 17.2646 14.3112 17.6641 14.3001C18.6962 14.2778 19.6617 14.1437 19.6617 14.0319C19.6617 13.9761 19.7171 13.9313 19.7726 13.9313C19.8392 13.9313 19.8836 14.0319 19.8836 14.1548C19.8836 14.2778 19.9391 14.3783 19.9946 14.3783C20.0612 14.3783 20.1056 14.2554 20.1056 14.1101C20.1056 13.9537 20.161 13.7973 20.2276 13.7637C20.2942 13.7078 20.2609 13.6185 20.1166 13.5179C19.8392 13.3279 19.817 12.9815 20.0501 12.7468C20.1832 12.6128 20.2165 12.6128 20.2165 12.7245C20.2165 12.8027 20.3608 12.8809 20.5605 12.8921C20.7492 12.9032 20.9712 12.9703 21.0488 13.0374C21.1154 13.0933 21.2153 13.1156 21.2486 13.0709C21.293 13.0374 21.3818 13.0597 21.4705 13.1267C21.6814 13.3055 21.9144 13.1156 21.8257 12.825C21.7924 12.7021 21.7924 12.5345 21.8368 12.4563C21.8922 12.3781 21.9144 12.1769 21.8922 12.0093C21.8701 11.7858 21.9144 11.6964 22.0365 11.6964C22.1364 11.6964 22.2141 11.7411 22.2141 11.7858C22.2141 11.9199 22.6468 12.3669 22.7911 12.3669C22.8688 12.3669 22.8688 12.3222 22.78 12.2105C22.6247 12.0205 22.7135 11.5958 23.0131 11.0036C23.235 10.579 23.2129 10.3555 22.9243 10.3555C22.8133 10.3555 22.769 10.2214 22.769 9.89728C22.769 9.65145 22.7135 9.34975 22.6468 9.21567C22.4804 8.90274 22.6025 8.52283 22.9465 8.28816C23.2239 8.10937 23.2461 8.10937 23.4792 8.33287C23.6789 8.53399 23.69 8.60103 23.5679 8.80221C23.4681 8.95861 23.457 9.07037 23.5346 9.17095C23.6013 9.24916 23.6235 9.42795 23.5791 9.58441L23.5125 9.85257L23.7455 9.62913C24.0229 9.34975 24.0896 8.88041 23.8898 8.63458C23.7566 8.47812 23.7566 8.39991 23.8787 8.16525C24.0118 7.91939 24.0007 7.87468 23.7899 7.71824C23.6568 7.62884 23.5457 7.45005 23.5457 7.32713C23.5457 7.21538 23.4681 7.11481 23.3793 7.11481C23.2794 7.11481 23.2461 7.04776 23.2905 6.93602C23.3238 6.83545 23.2572 6.70135 23.1241 6.60078C22.9909 6.51138 22.9132 6.36611 22.9465 6.28789C23.002 6.13144 22.3251 5.66211 22.0476 5.66211C21.9699 5.66211 21.7924 5.82973 21.6592 6.04205ZM22.2141 6.20966C22.2141 6.31024 21.9477 6.44433 21.7591 6.44433C21.7036 6.44433 21.6592 6.36611 21.6592 6.27672C21.6592 6.17614 21.7591 6.10909 21.9366 6.10909C22.092 6.10909 22.2141 6.15379 22.2141 6.20966ZM21.2597 10.3443C21.293 10.389 21.3485 10.6237 21.3707 10.8471C21.404 11.0818 21.4705 11.3277 21.526 11.3947C21.6703 11.5735 21.8035 12.2551 21.7036 12.2551C21.5371 12.2551 20.8935 11.417 20.8269 11.1265C20.7159 10.6348 21.0599 10.009 21.2597 10.3443ZM21.9921 11.417C21.9921 11.5065 21.9477 11.5847 21.8922 11.5847C21.748 11.5847 21.6481 11.4059 21.7369 11.3164C21.859 11.1935 21.9921 11.2494 21.9921 11.417ZM19.9946 12.4227C19.9946 12.5122 19.9502 12.5904 19.8947 12.5904C19.8392 12.5904 19.7726 12.5122 19.7282 12.4227C19.6949 12.3222 19.7282 12.2551 19.8281 12.2551C19.9169 12.2551 19.9946 12.3334 19.9946 12.4227ZM18.8849 13.8196C18.8849 13.8755 18.8293 13.9313 18.7628 13.9313C18.7073 13.9313 18.6851 13.8755 18.7184 13.8196C18.7517 13.7525 18.8071 13.7078 18.8404 13.7078C18.8626 13.7078 18.8849 13.7525 18.8849 13.8196Z" fill="white"/>
<path d="M36.5554 5.94975C36.522 6.03857 36.3998 6.11629 36.2887 6.11629C35.9554 6.11629 35.7109 6.4827 35.7109 6.96013C35.7109 7.30432 35.7776 7.47087 36.0331 7.71514C36.3664 8.02603 37.222 8.2814 37.3331 8.10377C37.3553 8.04823 37.5886 7.94831 37.8331 7.87058C38.2664 7.74845 38.8219 7.15999 38.8219 6.8269C38.8219 6.76028 38.6331 6.50491 38.3998 6.24953C37.9886 5.80541 37.9442 5.7832 37.2997 5.7832C36.7998 5.7832 36.6109 5.82762 36.5554 5.94975ZM38.1886 6.50491C38.4886 6.62704 38.4109 6.96013 38.0442 7.10447C37.8664 7.17109 37.5664 7.28212 37.3775 7.34874C37.1998 7.41536 36.9664 7.44867 36.8776 7.40426C36.6775 7.32653 36.4887 6.88241 36.5887 6.72697C36.622 6.66035 36.6553 6.58263 36.6664 6.52711C36.6775 6.4827 36.6887 6.42718 36.6998 6.39387C36.7109 6.31615 37.9442 6.40498 38.1886 6.50491Z" fill="white"/>
<path d="M20.1633 7.30753C20.0552 7.32866 19.9688 7.40262 19.9688 7.45544C19.9688 7.60335 20.1416 7.57166 20.2929 7.39205C20.3686 7.30753 20.4118 7.24414 20.3902 7.24414C20.3686 7.25471 20.2605 7.27584 20.1633 7.30753Z" fill="white"/>
<path d="M46.1953 8.19916C46.1953 8.25516 46.2951 8.33361 46.4061 8.37838C46.5281 8.41199 46.8053 8.59127 47.0271 8.77049C47.3044 8.99454 47.5706 9.1066 47.8146 9.1066C48.1362 9.1066 48.4246 9.30826 49.7777 10.4734C52.4062 12.7587 52.5282 12.8596 52.7168 12.8596C52.8388 12.8596 52.9053 12.77 52.9053 12.6243C52.9053 12.4562 52.3951 11.9521 51.1862 10.9102C50.2435 10.0924 49.2564 9.19621 49.0013 8.91616C48.5466 8.41199 48.5133 8.40083 47.859 8.37838C47.493 8.36722 47.127 8.29999 47.0604 8.23277C46.9051 8.07592 46.1953 8.05352 46.1953 8.19916Z" fill="white"/>
<path d="M44.1086 8.98064C43.4973 9.19421 42.5193 9.67751 42.4303 9.81244C42.397 9.86862 42.1747 10.0485 41.9524 10.1945C41.4634 10.4981 40.2854 11.7008 39.8853 12.2964C39.6074 12.7123 39.0628 14.1061 38.9739 14.6681C38.9406 14.8479 38.8517 15.0165 38.7739 15.0503C38.6294 15.0952 38.4293 16.0731 38.4849 16.4552C38.496 16.5676 38.4627 16.6576 38.396 16.6576C38.2181 16.6576 38.1293 17.1071 38.2737 17.2757C38.3404 17.3544 38.4071 17.8041 38.4182 18.2649C38.4404 18.9055 38.4849 19.1641 38.6405 19.3327C38.7628 19.4675 38.8183 19.6137 38.785 19.6811C38.7405 19.7486 38.8072 19.861 38.9406 19.9396C39.2184 20.1195 39.2295 20.2544 38.9628 20.2544C38.6627 20.2544 38.496 20.4792 38.496 20.8951C38.496 21.2884 38.3293 21.4008 38.2293 21.0637C38.1626 20.8725 37.4624 20.4792 37.1735 20.4792C37.1068 20.4792 36.9845 20.3555 36.9179 20.1981C36.7734 19.8834 36.5844 19.8385 36.3844 20.0858C36.3066 20.1757 36.151 20.2544 36.0287 20.2544C35.9176 20.2544 35.7953 20.3331 35.762 20.423C35.7176 20.5129 35.5953 20.5916 35.4841 20.5916C35.2063 20.5916 35.2174 20.8838 35.4953 21.0411C35.6286 21.1086 35.7176 21.2772 35.7176 21.4458C35.7176 21.6369 35.8064 21.7493 35.9843 21.8167C36.2288 21.9179 37.0512 22.7946 37.0512 22.9632C37.0512 23.0082 36.9512 23.0643 36.8289 23.0981C36.4622 23.1992 36.5622 23.469 36.9734 23.469C37.1624 23.469 37.4958 23.5589 37.7069 23.6601C38.1737 23.8961 38.3738 23.8961 38.4515 23.6826C38.496 23.5927 38.5738 23.514 38.6294 23.514C38.685 23.514 38.8628 23.4128 39.0183 23.2891C39.2295 23.1206 39.4073 23.0756 39.6519 23.1206C39.8741 23.1655 40.2965 23.0868 40.8299 22.8957C41.2856 22.7384 41.9635 22.5023 42.3303 22.3787C43.1083 22.1202 43.4973 21.7943 44.1086 20.8838C44.353 20.5241 44.6531 20.1195 44.7865 19.9958C44.9199 19.861 45.0977 19.5912 45.1977 19.4113C45.2866 19.2203 45.52 18.928 45.709 18.7482C45.8979 18.5571 46.0535 18.3548 46.0535 18.2874C46.0535 18.1075 47.1426 16.6576 47.2871 16.6576C47.3427 16.6576 47.5649 16.4777 47.7872 16.2642C47.9984 16.0506 48.2207 15.8708 48.2874 15.8708C48.3429 15.8708 48.6875 15.6347 49.032 15.3312C49.3876 15.039 49.8656 14.7018 50.11 14.5782C50.3545 14.4545 50.5768 14.3197 50.5879 14.2634C50.6102 14.2185 50.6991 14.1847 50.7769 14.1847C50.8547 14.1847 51.0659 14.1173 51.2437 14.0274C51.4104 13.9375 51.7327 13.8139 51.9549 13.7464C52.4662 13.5891 54.1333 13.5891 54.2222 13.7464C54.2666 13.8139 54.4334 13.8251 54.6112 13.7914C54.789 13.7576 54.9557 13.7689 55.0002 13.8363C55.0335 13.9038 55.1446 13.96 55.2336 13.96C55.3892 13.96 55.3892 13.9375 55.2336 13.7914C55.1446 13.7014 55.0113 13.6227 54.9335 13.6227C54.8668 13.6227 54.6445 13.5216 54.4556 13.4092C54.1889 13.2406 53.7999 13.1732 52.7107 13.117C51.7327 13.0608 51.277 13.072 51.2326 13.162C51.1881 13.2294 50.988 13.2855 50.7991 13.2855C50.5991 13.2855 50.3323 13.3642 50.1878 13.4541C50.0545 13.5553 49.8878 13.6227 49.81 13.6115C49.6433 13.5778 49.132 13.7352 49.0543 13.8363C49.0209 13.8813 48.7652 14.0836 48.4763 14.2972C48.1762 14.4995 47.9428 14.7131 47.9428 14.758C47.9428 14.803 47.8317 14.8817 47.6983 14.9153C47.5538 14.9603 47.2982 15.1402 47.1093 15.32C46.0868 16.3204 45.7867 16.6238 45.6423 16.8486C45.5422 16.9948 45.3977 17.1071 45.32 17.1071C45.231 17.1071 45.1643 17.1858 45.1643 17.2757C45.1643 17.3769 45.0866 17.4781 44.9976 17.5118C44.9088 17.5455 44.8087 17.6916 44.7642 17.8153C44.7309 17.9502 44.5087 18.2986 44.2753 18.5796C44.0307 18.8719 43.8084 19.2765 43.764 19.5125C43.7085 19.8385 43.5084 20.1307 42.8971 20.7264C42.4637 21.1648 41.9524 21.6481 41.7524 21.7943C41.3967 22.064 41.0522 22.0752 41.0522 21.8167C41.0522 21.7493 41.13 21.7156 41.2189 21.7493C41.3856 21.8167 42.3859 20.7826 42.3859 20.5466C42.3859 20.4679 42.5082 20.2881 42.6637 20.1419C42.8082 20.0071 42.9083 19.8385 42.8749 19.7935C42.7971 19.6586 43.075 19.2427 43.2417 19.2427C43.3195 19.2427 43.3861 19.1528 43.3861 19.0404C43.3861 18.8269 44.3975 17.2533 45.0532 16.4328C46.2091 15.0053 47.1315 14.1286 48.5319 13.1282C48.8764 12.8809 49.1431 12.6561 49.1209 12.6224C48.8653 12.0042 48.8097 11.9593 48.3985 12.0155C48.1762 12.0492 47.9539 12.1278 47.8984 12.1728C47.8317 12.229 47.6539 12.274 47.4872 12.274C47.0537 12.274 46.5092 12.4875 45.8646 12.9259C45.2755 13.3193 45.231 13.3867 45.2755 13.7801C45.2866 13.8926 45.231 14.0386 45.1421 14.0836C44.9421 14.2185 44.7976 14.2073 44.8865 14.0836C44.9532 13.96 44.6087 13.7352 44.3752 13.7352C44.2641 13.7352 44.2641 13.7689 44.3641 13.87C44.5531 14.0612 44.5309 14.2185 44.3197 14.1398C44.0863 14.0499 43.6862 14.2747 43.764 14.4658C43.7973 14.5557 43.6974 14.7243 43.5528 14.8479C43.3972 14.9603 43.275 15.1065 43.275 15.1626C43.275 15.2301 43.1749 15.365 43.0527 15.4774C42.6526 15.8371 41.8969 17.0397 42.0413 17.0847C42.2303 17.1521 42.1858 17.3095 41.9635 17.3882C41.8413 17.4219 41.6968 17.6467 41.6079 17.9277C41.4412 18.4784 41.03 19.3552 40.93 19.3552C40.8966 19.3552 40.8299 19.7823 40.7966 20.3105C40.7633 20.8276 40.6743 21.3558 40.6188 21.4795C40.5299 21.6369 40.541 21.7043 40.6632 21.7493C40.7966 21.8055 40.7966 21.8617 40.6521 22.1539C40.5299 22.4124 40.3854 22.5136 40.0742 22.5698C39.8519 22.6148 39.5963 22.6935 39.5185 22.7609C39.4296 22.8283 39.3407 22.8396 39.274 22.7721C39.1518 22.6485 39.0962 21.4121 39.2073 21.2997C39.2518 21.2547 39.474 21.221 39.7186 21.2098C40.1298 21.2098 40.152 21.1985 40.2075 20.7602C40.252 20.5129 40.2298 20.1532 40.1853 19.9733C40.0297 19.4339 40.7299 15.2751 41.0633 14.803C41.1078 14.7355 41.1744 14.5332 41.2078 14.3309C41.2967 13.9487 41.8079 12.9034 42.397 11.9368C42.9305 11.0601 44.3197 9.70002 45.0755 9.29541C45.4311 9.10429 45.7201 8.93569 45.7201 8.90195C45.7201 8.77831 44.5198 8.83455 44.1086 8.98064ZM39.9075 19.8834C39.8741 19.9172 39.7852 19.9059 39.7186 19.861C39.6185 19.7935 39.6185 19.7486 39.7297 19.6811C39.8853 19.5912 40.0297 19.7598 39.9075 19.8834ZM37.0734 21.3109C37.3957 21.6481 37.8403 22.019 38.0514 22.1314C38.3293 22.2888 38.4404 22.4349 38.4404 22.626C38.4404 22.9632 38.1626 23.0306 37.907 22.7609C37.1401 21.9403 36.6733 21.4908 36.5955 21.4908C36.54 21.4908 36.4955 21.4345 36.4955 21.3784C36.4955 21.3109 36.4288 21.2659 36.3399 21.2659C36.2621 21.2659 36.1288 21.1872 36.0398 21.0861C35.9287 20.94 35.9287 20.8951 36.0621 20.8051C36.3399 20.6252 36.4844 20.6927 37.0734 21.3109Z" fill="white"/>
<path d="M32.8789 9.79729C32.8233 9.85323 32.5564 9.93149 32.2783 9.96504C32.0114 9.99859 31.7334 10.0769 31.6555 10.144C31.5221 10.2558 29.0753 11.2511 28.9419 11.2511C28.8973 11.2511 28.5637 11.3853 28.2078 11.5531C27.863 11.7096 27.4182 11.8549 27.2291 11.8773C27.0401 11.8997 26.6063 12.0227 26.2726 12.1569C25.939 12.2799 25.2829 12.5259 24.8269 12.6937C24.3709 12.8726 23.7703 13.1075 23.4923 13.2417C23.2142 13.3647 22.7138 13.566 22.3801 13.6778C21.6572 13.9238 21.4682 14.0245 21.546 14.1587C21.5794 14.2034 21.5237 14.2817 21.4236 14.3153C21.3347 14.3488 21.2902 14.4382 21.3236 14.5053C21.4236 14.6508 21.913 14.5389 22.6692 14.1922C23.2254 13.9462 23.9594 13.7673 24.8824 13.6666C25.0715 13.6443 25.3718 13.5436 25.5498 13.443C25.7388 13.3423 25.9612 13.264 26.0502 13.264C26.1392 13.264 26.6174 13.0851 27.0957 12.8726C27.585 12.6601 28.2412 12.4253 28.5748 12.3582C28.9085 12.2799 29.1977 12.1793 29.231 12.1233C29.2644 12.0786 29.409 12.0339 29.5647 12.0339C29.7204 12.0339 29.8649 11.9556 29.9094 11.8662C29.9761 11.6649 30.7658 11.2287 30.8659 11.3294C30.9104 11.3629 31.1106 11.2399 31.333 11.0386C31.7 10.7255 31.8557 10.6472 32.0892 10.6808C32.1338 10.6808 32.1671 10.6472 32.1671 10.6025C32.1671 10.5577 32.4452 10.3676 32.7788 10.1887C33.1125 9.99859 33.3905 9.81968 33.3905 9.76374C33.3905 9.65193 33.0123 9.66309 32.8789 9.79729Z" fill="white"/>
<path d="M16.5157 11.459C16.4266 11.5926 16.293 11.702 16.2151 11.702C16.1371 11.702 16.0703 11.7505 16.0703 11.8234C16.0703 11.8841 16.0926 11.9449 16.126 11.9449C16.2373 11.9449 16.6827 11.6412 16.8052 11.4711C16.872 11.374 17.0279 11.3254 17.1726 11.374C17.2951 11.4104 17.3842 11.3861 17.3397 11.3254C17.2283 11.1189 16.6827 11.2161 16.5157 11.459Z" fill="white"/>
<path d="M15.2169 11.8264C15.0825 12.0172 15.0423 12.2397 15.1766 12.1761C15.2841 12.1232 15.4588 11.6992 15.3781 11.6992C15.3513 11.6992 15.2841 11.7628 15.2169 11.8264Z" fill="white"/>
<path d="M14.348 12.2934C14.1807 12.4555 14.0469 12.6176 14.0469 12.664C14.0469 12.7335 14.348 12.5134 14.6381 12.2123C14.9504 11.888 14.6938 11.9691 14.348 12.2934Z" fill="white"/>
<path d="M25.9534 14.5963C26.0313 14.7207 26.176 14.8338 26.2763 14.8338C26.3876 14.8338 27.5232 15.5463 28.8035 16.417C30.095 17.2992 31.2974 18.1021 31.4755 18.2152C32.7335 19.0181 33.1121 19.2782 33.2791 19.4592C33.3905 19.5835 33.769 19.8097 34.1252 19.9794C34.4703 20.149 34.7932 20.3299 34.8266 20.3865C34.9045 20.5222 35.0938 20.5109 35.0938 20.3752C35.0938 20.3074 34.6596 19.9681 34.1252 19.6175C33.5797 19.2669 33.2123 18.9616 33.2902 18.9276C33.357 18.905 33.3905 18.8371 33.357 18.7806C33.3125 18.7128 33.2345 18.7128 33.1455 18.7919C33.0453 18.8824 32.7335 18.7354 31.9097 18.1926C29.7053 16.7676 29.3045 16.4962 29.3045 16.3944C29.3045 16.3492 29.26 16.3153 29.2043 16.3266C29.1598 16.3492 28.4806 15.9307 27.7013 15.4105C26.922 14.8903 26.176 14.4379 26.0536 14.404C25.8532 14.3588 25.8421 14.3701 25.9534 14.5963Z" fill="white"/>
<path d="M25.6502 15.2919C25.4489 15.4201 25.2812 15.6182 25.2812 15.7114C25.2924 15.8511 25.3148 15.8511 25.4378 15.6764C25.516 15.5716 25.639 15.4784 25.6949 15.4784C25.9185 15.4784 28.8699 17.3539 29.3171 17.7734C29.4735 17.9248 29.7195 18.0413 29.8649 18.0413C30.1444 18.0413 29.3059 17.3656 27.3495 16.0259C26.8017 15.6531 26.2651 15.2686 26.1756 15.1871C26.0414 15.0706 25.952 15.0823 25.6502 15.2919Z" fill="white"/>
<path d="M47.1278 20.7881C47.0941 20.8322 47.1053 20.9534 47.1727 21.0747C47.2288 21.1849 47.2625 21.3172 47.2288 21.3724C47.0829 21.5928 48.3177 22.3755 48.8117 22.3755C49.0923 22.3755 49.9791 21.9345 49.9117 21.8243C49.8668 21.7582 49.6536 21.7141 49.429 21.7141C48.8229 21.7141 48.5086 21.6039 48.5086 21.3944C48.5086 21.2401 48.4861 21.2401 48.3963 21.3834C48.3065 21.5157 48.2167 21.4716 47.8574 21.1298C47.4421 20.733 47.2737 20.6558 47.1278 20.7881Z" fill="white"/>
<path d="M48.9616 21.3669C48.88 21.4126 48.8596 21.4584 48.9106 21.4584C48.9718 21.4584 49.0839 21.4126 49.1655 21.3669C49.2471 21.3211 49.2777 21.2754 49.2165 21.2754C49.1655 21.2754 49.0432 21.3211 48.9616 21.3669Z" fill="white"/>
<path d="M35.4062 22.3814C35.4062 22.4458 35.4515 22.4973 35.5081 22.4973C35.5647 22.4973 35.7005 22.5359 35.8136 22.5873C35.9381 22.6388 35.9834 22.626 35.9381 22.5359C35.8362 22.3557 35.4062 22.227 35.4062 22.3814Z" fill="white"/>
<path d="M7.29336 29.5169C7.20479 29.5388 7.04971 29.5934 6.96111 29.6153C6.85036 29.659 6.92788 29.7901 7.27122 30.096C7.52595 30.3364 7.7364 30.5768 7.7364 30.6314C7.7364 30.697 7.85822 30.7735 8.01328 30.8172C8.16834 30.85 8.40094 31.0357 8.5338 31.2215C8.82178 31.6149 10.4388 32.3907 10.9815 32.3907C11.3027 32.3907 11.646 32.489 12.388 32.7949C12.676 32.9152 12.8311 32.8823 12.8311 32.7184C12.8311 32.5436 11.7789 32.041 11.1365 31.9099C10.6049 31.8006 10.4166 31.7023 10.0733 31.3198C9.84072 31.0685 9.5417 30.8609 9.41982 30.8609C9.29801 30.8609 9.01008 30.697 8.77749 30.4894C8.02432 29.8338 7.53706 29.4405 7.50381 29.4514C7.48167 29.4514 7.38199 29.4842 7.29336 29.5169Z" fill="white"/>
<path d="M22.6695 55.5843C22.4139 55.7515 22.5583 56.8665 22.8917 57.2233C23.4251 57.7919 25.4143 58.5278 27.3812 58.8735C27.5702 58.9069 27.9702 58.9849 28.2703 59.0407C29.1482 59.2079 29.7704 59.1968 29.8483 58.9849C29.926 58.7731 29.5704 58.2713 29.2259 58.093C29.0926 58.0261 28.8814 57.8588 28.7592 57.725C28.4814 57.424 28.4147 57.4352 28.0147 57.7696C27.748 57.9926 27.6146 58.0261 27.2812 57.9703C26.9145 57.9146 26.8701 57.87 26.9034 57.6135C26.9256 57.4128 27.0145 57.3125 27.1923 57.2902C27.3257 57.2679 27.4368 57.2233 27.4368 57.1898C27.4368 56.9334 25.7144 56.0749 25.6032 56.2755C25.4921 56.4316 25.2143 56.3982 25.2809 56.2198C25.3587 56.0191 24.8809 55.8965 24.3697 55.9968C24.0697 56.0525 23.9919 56.0303 23.9919 55.8853C23.9919 55.785 23.9585 55.7181 23.9141 55.7292C23.8585 55.7404 23.6252 55.6846 23.3807 55.6177C22.8584 55.4616 22.8695 55.4616 22.6695 55.5843ZM24.6031 56.1529C24.6364 56.2086 24.6142 56.2644 24.5586 56.2644C24.4919 56.2644 24.4364 56.2086 24.4364 56.1529C24.4364 56.086 24.4586 56.0414 24.4808 56.0414C24.5142 56.0414 24.5697 56.086 24.6031 56.1529Z" fill="white"/>
</g>
<defs>
<linearGradient id="paint0_linear_1701_2629" x1="0" y1="0" x2="64" y2="64" gradientUnits="userSpaceOnUse">
<stop stop-color="#9E1B32"/>
<stop offset="0.969424" stop-color="#D4652A"/>
</linearGradient>
<clipPath id="clip0_1701_2629">
<rect width="64" height="64" rx="32" fill="white"/>
</clipPath>
</defs>
</svg>
