<svg width="141" height="70" viewBox="0 0 141 70" fill="none" xmlns="http://www.w3.org/2000/svg">
<g clip-path="url(#clip0_1668_398)">
<path d="M61.9625 69.9532C61.0326 69.8428 60.0794 69.4377 59.4982 68.9223L59.3076 68.752V62.1796H60.2375V68.3377L60.5537 68.5449C61.1348 68.9315 61.716 69.0833 62.5809 69.0833C63.4689 69.0833 64.0966 68.9177 64.6546 68.5264L64.9336 68.3331V62.1796H65.8635V68.752L65.6449 68.9453C65.1707 69.3595 64.371 69.7323 63.627 69.8842C63.176 69.9762 62.3949 70.0084 61.9625 69.9532ZM78.0686 69.9762C77.0829 69.8612 76.325 69.6126 75.5951 69.1662L75.4416 69.0741V67.6105H76.3715V68.5357L76.7574 68.7151C77.3758 69.0005 77.6827 69.0603 78.5103 69.0603C79.3194 69.0603 79.7053 68.9821 80.2772 68.7013L80.5794 68.5541L80.5934 67.9511L80.6073 67.3436L80.4771 67.2976C80.4074 67.2746 79.3008 66.8742 78.0221 66.4139C76.7435 65.9537 75.6415 65.5532 75.5718 65.5302L75.4416 65.4842V63.0587L75.6555 62.916C75.9763 62.6951 76.6784 62.3821 77.0783 62.2763C78.4638 61.9219 79.9936 62.1152 81.1746 62.8009L81.5326 63.0081V64.4809H80.6027V63.5696L80.3981 63.4499C80.2865 63.3855 79.9982 63.2658 79.7564 63.183C79.338 63.0403 79.2961 63.0357 78.5568 63.0357C77.6734 63.0311 77.3386 63.0955 76.7807 63.3671L76.4413 63.5373L76.4273 64.2047L76.4134 64.8721L78.9846 65.7972L81.5558 66.7223L81.5698 67.8959L81.5791 69.0649L81.2303 69.2628C80.2725 69.8059 79.0357 70.0867 78.0686 69.9762ZM50.8918 66.0457V62.1796H51.8682V65.4474H56.3783V62.1796H57.3082V69.9118H56.3783V66.3679H51.8682V69.9118H50.8918V66.0457ZM67.8163 66.0457V62.1704L69.5273 62.1934C70.8013 62.2118 71.3314 62.2348 71.615 62.2901C72.3496 62.4328 72.9169 62.6997 73.354 63.1093L73.5818 63.3256V65.07L73.354 65.2725C73.1168 65.4842 72.6286 65.7604 72.3031 65.8662L72.1172 65.926L72.3729 65.9997C72.7588 66.1147 73.1633 66.3357 73.433 66.575L73.6748 66.7913V68.775L73.4841 68.9545C73.0424 69.3733 72.5403 69.6126 71.787 69.7737C71.3779 69.8658 71.1361 69.8796 69.5738 69.898L67.8163 69.921V66.0457ZM71.6801 68.9269C72.0242 68.8532 72.3775 68.6875 72.6007 68.508L72.7449 68.3838V67.0629L72.5496 66.9064C72.0009 66.4691 71.5639 66.3725 69.9458 66.3357L68.7462 66.308V69.0511L70.062 69.0235C70.9687 69.0051 71.4662 68.9775 71.6801 68.9269ZM71.4848 65.429C71.8335 65.3415 72.1776 65.1804 72.424 64.9825L72.6054 64.8399V63.7076L72.4333 63.5604C72.0056 63.1876 71.5732 63.1001 69.9923 63.0679L68.7462 63.0403V65.5486L69.9691 65.5256C70.8757 65.5072 71.2616 65.4842 71.4848 65.429ZM24.8635 51.7596C24.1753 51.2763 23.6174 50.8621 23.6313 50.8391C23.6453 50.8207 23.6313 50.7839 23.5988 50.7654C23.5523 50.7378 23.5104 50.1717 23.436 48.409L23.3384 46.0939L22.4782 43.9307L21.618 41.7676L20.1395 39.9404C19.3258 38.9324 18.633 38.1086 18.5958 38.1086C18.5307 38.1086 15.9688 38.6425 15.8247 38.6885C15.7456 38.7115 15.741 38.8772 15.741 41.3119C15.741 43.5902 15.7317 43.9077 15.6712 43.9077C15.634 43.9077 15.6015 43.9354 15.6015 43.9722C15.6015 44.0642 12.1143 43.3554 11.9841 43.2358C11.9097 43.1667 10.8729 40.9345 9.67327 38.2697L9.57098 38.035L10.4823 37.653C14.5879 35.9178 18.3122 33.5798 21.8552 30.5099C22.6317 29.8379 24.4589 28.0568 25.2261 27.2237C28.0949 24.1124 30.4615 20.6882 32.3679 16.8819L32.8235 15.9706L32.9677 16.0811C33.0886 16.1731 33.3675 16.233 34.7671 16.4815C35.9527 16.6886 36.4177 16.7853 36.3991 16.8267C36.3898 16.8589 36.413 16.8773 36.4549 16.8773C36.5014 16.8727 37.0128 17.3836 37.7335 18.1568C38.6402 19.1279 38.9238 19.4593 38.8866 19.5053C38.8494 19.5468 38.854 19.556 38.9145 19.533C38.961 19.5145 38.9889 19.5284 38.9889 19.5698C38.9889 19.6664 39.6352 24.2643 39.6491 24.2781C39.6584 24.2827 40.4907 24.9179 41.4997 25.6865C43.2898 27.0534 43.3688 27.1087 44.6428 27.8405C45.9028 28.563 45.954 28.5953 45.9214 28.7103C45.8889 28.8208 45.754 28.8668 43.1968 29.6216C41.7182 30.0635 40.5047 30.427 40.5047 30.4317C40.5 30.4409 40.2303 30.8459 39.9002 31.3383C39.4027 32.0932 39.2911 32.2358 39.1935 32.2404C39.0912 32.245 38.9377 32.0793 38.2171 31.2095C37.6917 30.5743 37.3755 30.1601 37.4034 30.1325C37.4266 30.1095 37.4359 30.0635 37.4266 30.0312C37.4127 30.0036 37.7056 29.7183 38.0822 29.4053C38.4542 29.0923 38.7564 28.8208 38.7564 28.8024C38.7564 28.6965 31.7262 25.3091 31.6518 25.3827C31.6239 25.4103 31.2241 27.73 31.2241 27.8773C31.2241 28.0936 33.1304 32.0333 34.5904 34.8316C35.418 36.4195 36.1061 37.7496 36.1154 37.7864C36.1247 37.8232 36.1433 37.8647 36.1573 37.8785C36.1712 37.8923 36.3898 39.0153 36.6455 40.3822L37.1058 42.863L37.5987 43.3738C37.9799 43.7697 38.0869 43.9123 38.0869 44.009C38.0822 44.1102 37.9567 44.2391 37.3848 44.7132C37.0035 45.0353 36.6734 45.3345 36.6548 45.3759C36.6362 45.4174 36.6222 45.7856 36.6222 46.1998L36.6176 46.9546L38.152 49.3939C39.7979 52.0127 39.8026 52.0219 39.4817 52.0772C38.8866 52.1784 37.7614 52.2797 37.7335 52.2382C37.7149 52.2106 37.6777 52.1922 37.6498 52.2014C37.6126 52.2106 34.4834 48.7588 34.158 48.3445C34.1394 48.3215 33.5489 47.3136 32.8514 46.1123L31.5821 43.9261L30.0012 43.7098C29.1271 43.5902 28.4111 43.4981 28.4064 43.5073C28.4018 43.5119 27.9368 44.6579 27.3696 46.0571L26.342 48.5931V52.5374L26.2304 52.588C26.1328 52.6341 26.0072 52.5604 24.8635 51.7596ZM9.37104 34.2701C9.37104 34.1919 9.39429 34.1505 9.44544 34.1505C9.50123 34.1505 9.51053 34.1321 9.47334 34.0952C9.44079 34.0492 9.75696 33.6212 10.6543 32.4936C11.561 31.3521 11.8772 30.9287 11.8586 30.8597C11.8493 30.8091 11.3378 29.6907 10.7241 28.3743L9.61282 25.981L8.38998 24.6647L7.16714 23.3438L5.70252 22.8974C4.8935 22.6488 4.16351 22.4279 4.08447 22.4049C4.00078 22.3819 3.93103 22.3359 3.93103 22.2991C3.93103 22.2622 3.91243 22.23 3.88454 22.23C3.85664 22.23 3.83804 21.7007 3.83804 20.7388V19.2522L1.98286 18.7275C0.959949 18.4376 0.136973 18.1844 0.150921 18.1614C0.16487 18.143 0.146272 18.1062 0.113725 18.0832C0.0625793 18.051 0.076528 17.9129 0.202067 17.2962C0.290409 16.8727 0.38805 16.5229 0.425247 16.4953C0.457794 16.4677 0.476392 16.4309 0.462443 16.4171C0.448495 16.4033 1.32262 15.8694 2.40597 15.2342C3.48467 14.5945 4.41459 14.0284 4.46573 13.9732C4.51688 13.9179 5.01903 13.0388 5.58163 12.0217C6.14423 11.0045 6.62779 10.1761 6.65104 10.1807C6.67894 10.1853 6.73008 10.1715 6.77193 10.1531C6.81377 10.1347 7.72974 10.3326 8.85959 10.6087C9.96619 10.8757 10.8961 11.092 10.9287 11.092C10.9612 11.092 11.6214 10.2221 12.3979 9.15895C13.2441 8.00373 13.8346 7.23511 13.8718 7.24892C13.8997 7.25812 13.9276 7.23971 13.9276 7.20289C13.9276 7.14306 14.1508 7.13386 15.5085 7.13386C16.8662 7.13386 17.0894 7.14306 17.0894 7.20289C17.0894 7.23971 17.1172 7.25812 17.1498 7.24432C17.2056 7.22591 18.0286 7.91168 20.093 9.69744L20.3766 9.94137L22.4364 10.1807C23.7383 10.3326 24.5194 10.443 24.5566 10.4799C24.5891 10.5121 24.6217 10.5213 24.631 10.4983C24.6403 10.4799 25.4493 10.8987 26.435 11.4372C28.0996 12.3439 28.2251 12.4175 28.2158 12.528C28.2065 12.6706 27.7136 13.9824 27.2952 14.9765C25.6446 18.9024 23.2454 22.6857 20.3534 25.9258C19.6327 26.7313 17.9681 28.3835 17.1591 29.0969C14.918 31.0622 12.5467 32.6961 9.8267 34.1459L9.37104 34.3852V34.2701ZM57.8197 23.7949C54.0442 23.5325 51.394 21.3601 50.7105 17.9727C50.5245 17.043 50.5199 16.8681 50.5199 8.30749V0H53.4026V8.3213C53.4026 13.5865 53.4212 16.7577 53.4491 16.9602C53.5607 17.7196 53.8025 18.4422 54.1326 18.9761C54.3651 19.3581 54.8812 19.8874 55.2717 20.1405C56.8154 21.1576 59.6377 21.2589 61.3999 20.3614C62.6646 19.7171 63.4224 18.5296 63.627 16.8681C63.6642 16.5828 63.6782 13.9225 63.6782 8.22925V0H66.5609V8.20624C66.5609 13.4945 66.5423 16.5874 66.5144 16.9141C66.2494 19.7079 64.8917 21.7974 62.6227 22.9158C61.265 23.5878 59.5028 23.9099 57.8197 23.7949ZM71.2105 11.7456V0.151882L72.0846 0.124267C72.5635 0.105857 73.2052 0.0920498 73.5167 0.0920498H74.0793L79.2124 8.81376C82.0347 13.6096 84.3595 17.5309 84.3828 17.5355C84.4014 17.5355 84.4153 13.5911 84.4153 8.76774V0H87.2516V23.2334L86.5448 23.2656C86.1543 23.284 85.5219 23.3024 85.136 23.307L84.4432 23.3116L79.3194 14.6221C76.5017 9.84012 74.1723 5.90499 74.1444 5.87738C74.1072 5.84056 74.0932 8.10958 74.0932 14.5807V23.3346H71.2105V11.7456ZM91.9476 11.6673V0H94.7839V23.3346H91.9476V11.6673Z" fill="#00457B"/>
<path d="M57.0192 53.5507C56.2846 53.4494 55.8336 53.3482 55.1826 53.1365C53.0717 52.4507 51.5653 51.0653 50.8957 49.1875C50.6586 48.5202 50.561 47.9725 50.5331 47.121L50.5052 46.3478H53.4019V46.8541C53.4019 48.8516 54.5921 50.1909 56.7356 50.6235C58.084 50.8951 59.8229 50.8306 60.9667 50.4624C62.3291 50.0252 63.1846 49.1875 63.5472 47.9357C63.6356 47.6273 63.6542 47.457 63.6542 46.8771C63.6542 46.2834 63.6402 46.1407 63.5472 45.8415C63.259 44.9394 62.6313 44.3089 61.4084 43.706C60.5948 43.3055 59.6974 42.9788 57.6562 42.3574C55.3872 41.6671 54.1504 41.1792 53.1926 40.5947C51.8303 39.7662 50.9841 38.7031 50.6493 37.3913C50.5563 37.0324 50.5424 36.8667 50.547 36.0612C50.547 35.2834 50.561 35.0671 50.6539 34.6575C50.9329 33.3688 51.5281 32.3102 52.4626 31.4311C53.5739 30.3818 55.0664 29.7328 57.0053 29.4475C57.6562 29.3554 59.5207 29.3692 60.2135 29.4751C63.2869 29.9399 65.3885 31.5048 66.2115 33.9349C66.4253 34.5746 66.5137 35.1039 66.5462 35.937L66.5741 36.6365H63.6914L63.6635 36.006C63.6309 35.2696 63.5612 34.975 63.2822 34.3997C62.701 33.2031 61.4177 32.4621 59.5904 32.2596C58.9674 32.1905 57.5167 32.232 56.9588 32.3286C55.1454 32.6554 54.0295 33.5115 53.5599 34.9336C53.4437 35.2926 53.4298 35.3893 53.4298 36.0382C53.4251 36.7516 53.4251 36.7516 53.5785 37.0692C53.7692 37.4696 54.2109 37.9068 54.7363 38.2198C55.4709 38.6478 56.3078 38.9516 59.5625 39.9734C62.8126 40.9951 64.5516 42.0353 65.6256 43.6001C65.8813 43.9729 66.2254 44.7323 66.3416 45.1972C66.7415 46.716 66.5788 48.4327 65.9046 49.8227C65.6163 50.4256 65.2722 50.8951 64.7282 51.4381C63.617 52.5381 62.264 53.1825 60.3762 53.5093C59.7671 53.6151 57.6516 53.6427 57.0192 53.5507ZM74.418 42.9189V32.6784H66.8856V29.8249H84.833V32.6784H77.3007V53.1595H74.418V42.9189ZM85.7165 48.511V43.8625H81.9503V41.0089H85.7165V38.8687C85.7165 37.6767 85.7397 36.5261 85.7676 36.2775C86.2465 31.9098 89.1804 29.36 93.7323 29.3646C94.7878 29.3646 95.8061 29.5211 96.7406 29.8249C99.6327 30.7638 101.386 33.0052 101.711 36.1717C101.734 36.434 101.758 37.6261 101.758 38.8273V41.0089H106.407V29.8203L111.443 29.8387C116.357 29.8525 116.487 29.8571 116.994 29.9537C119.226 30.3772 120.83 31.5278 121.727 33.3458C122.69 35.2972 122.727 38.1001 121.82 40.139C121.179 41.5888 119.993 42.7026 118.436 43.3286L118.259 43.3976L118.556 43.8256C119.533 45.2248 124.959 53.1227 124.959 53.1411C124.959 53.1503 124.182 53.1549 123.229 53.1503L121.5 53.1365L118.315 48.5018L115.125 43.8671L112.21 43.8625H109.29V53.1595H106.407V43.8625H101.758V53.1595H98.8748V43.8625H88.5992V53.1595H85.7165V48.511ZM98.8748 38.7905C98.8748 36.4386 98.8515 36.0934 98.6423 35.3478C98.5075 34.86 98.182 34.2248 97.8751 33.8382C97.2846 33.088 96.4291 32.6048 95.2481 32.3424C94.6344 32.2089 92.9233 32.1951 92.3189 32.324C90.552 32.6968 89.4408 33.5943 88.9247 35.0717C88.641 35.8909 88.6317 35.9968 88.6131 38.6064L88.5946 41.0089H98.8748V38.7905ZM116.357 40.9399C117.715 40.7374 118.612 40.1621 119.114 39.1679C119.514 38.3763 119.677 37.3591 119.575 36.2775C119.505 35.5319 119.384 35.0625 119.128 34.5424C118.617 33.5161 117.696 32.9269 116.287 32.7244C116.092 32.6968 114.604 32.6784 112.628 32.6784H109.29V41.0089H112.605C115.251 41.0089 116.004 40.9951 116.357 40.9399ZM130.631 42.9189V32.6784H123.099V29.8249H141V32.6784H133.468V53.1595H130.631V42.9189ZM0.0478865 39.1311C0.0339377 38.9884 0.0106898 38.8365 0.00139063 38.7997C-0.0172077 38.7445 0.145528 38.6939 0.805769 38.5512C4.38595 37.778 8.12421 36.3328 11.4812 34.4181C21.1151 28.9274 28.0337 19.4278 30.5213 8.28521C30.6979 7.49358 30.9118 6.32455 30.8886 6.26472C30.8839 6.24171 30.0191 6.79861 28.9683 7.50279C27.513 8.48312 27.048 8.77308 27.0108 8.73165C26.9829 8.69944 26.6528 8.22998 26.2808 7.68229L25.602 6.68815L29.6983 3.93126C31.9533 2.41704 33.8085 1.18357 33.8225 1.19738C33.8504 1.21579 34.1991 1.72206 37.5096 6.54547L39.3973 9.28856L38.3605 9.98813C37.7886 10.3747 37.305 10.6923 37.2864 10.6969C37.2678 10.6969 36.7145 9.91449 36.0496 8.95257C35.3894 7.99065 34.8314 7.19903 34.8128 7.18982C34.7942 7.18522 34.7152 7.42455 34.6454 7.71911C34.4409 8.56596 33.9573 10.1998 33.6272 11.1618C32.1254 15.5249 29.9029 19.6672 27.048 23.4228C25.788 25.0751 24.686 26.3224 22.9982 27.9885C20.8036 30.1562 18.9159 31.6935 16.5307 33.2537C11.4208 36.5997 6.19464 38.5604 0.22922 39.3704L0.0804335 39.3888L0.0478865 39.1311Z" fill="#DBB200"/>
</g>
<defs>
<clipPath id="clip0_1668_398">
<rect width="141" height="70" fill="white"/>
</clipPath>
</defs>
</svg>
